Aercom-Light.ufo
<glyph name="ampersand" format="1">
  <advance width="1457"/>
  <unicode hex="0026"/>
  <outline>
    <contour>
      <point x="986" y="1249" type="curve" smooth="yes"/>
      <point x="986" y="1128"/>
      <point x="900" y="1018"/>
      <point x="659" y="929" type="curve"/>
      <point x="586" y="1016"/>
      <point x="534" y="1117"/>
      <point x="534" y="1221" type="curve" smooth="yes"/>
      <point x="534" y="1363"/>
      <point x="661" y="1442"/>
      <point x="782" y="1442" type="curve" smooth="yes"/>
      <point x="887" y="1442"/>
      <point x="986" y="1382"/>
    </contour>
    <contour>
      <point x="82" y="383" type="curve" smooth="yes"/>
      <point x="82" y="127"/>
      <point x="270" y="-25"/>
      <point x="540" y="-25" type="curve" smooth="yes"/>
      <point x="761" y="-25"/>
      <point x="949" y="88"/>
      <point x="1069" y="211" type="curve"/>
      <point x="1240" y="0" type="line"/>
      <point x="1375" y="0" type="line"/>
      <point x="1329" y="50" type="line"/>
      <point x="1140" y="284" type="line"/>
      <point x="1210" y="414"/>
      <point x="1276" y="538"/>
      <point x="1317" y="772" type="curve"/>
      <point x="1222" y="838" type="line"/>
      <point x="1192" y="669"/>
      <point x="1140" y="475"/>
      <point x="1069" y="369" type="curve"/>
      <point x="707" y="853" type="line"/>
      <point x="931" y="951"/>
      <point x="1084" y="1071"/>
      <point x="1084" y="1257" type="curve" smooth="yes"/>
      <point x="1084" y="1435"/>
      <point x="938" y="1521"/>
      <point x="785" y="1521" type="curve" smooth="yes"/>
      <point x="612" y="1521"/>
      <point x="430" y="1414"/>
      <point x="430" y="1212" type="curve" smooth="yes"/>
      <point x="430" y="1103"/>
      <point x="486" y="992"/>
      <point x="561" y="892" type="curve"/>
      <point x="291" y="791"/>
      <point x="82" y="638"/>
    </contour>
    <contour>
      <point x="200" y="387" type="curve" smooth="yes"/>
      <point x="200" y="582"/>
      <point x="351" y="718"/>
      <point x="611" y="811" type="curve"/>
      <point x="1008" y="289" type="line"/>
      <point x="873" y="130"/>
      <point x="686" y="61"/>
      <point x="546" y="61" type="curve" smooth="yes"/>
      <point x="309" y="61"/>
      <point x="200" y="207"/>
    </contour>
  </outline>
</glyph>
<glyph name="parenleft" format="1">
  <advance width="630"/>
  <unicode hex="0028"/>
  <outline>
    <contour>
      <point x="83" y="615" type="curve" smooth="yes"/>
      <point x="83" y="1213"/>
      <point x="262" y="1455"/>
      <point x="552" y="1509" type="curve"/>
      <point x="576" y="1416" type="line"/>
      <point x="282" y="1359"/>
      <point x="204" y="1069"/>
      <point x="204" y="615" type="curve" smooth="yes"/>
      <point x="204" y="161"/>
      <point x="282" y="-128"/>
      <point x="576" y="-184" type="curve"/>
      <point x="552" y="-278" type="line"/>
      <point x="262" y="-224"/>
      <point x="83" y="16"/>
    </contour>
  </outline>
</glyph>
<glyph name="parenright" format="1">
  <advance width="630"/>
  <unicode hex="0029"/>
  <outline>
    <contour>
      <point x="548" y="615" type="curve" smooth="yes"/>
      <point x="548" y="16"/>
      <point x="369" y="-224"/>
      <point x="78" y="-278" type="curve"/>
      <point x="55" y="-184" type="line"/>
      <point x="348" y="-128"/>
      <point x="426" y="161"/>
      <point x="426" y="615" type="curve" smooth="yes"/>
      <point x="426" y="1069"/>
      <point x="348" y="1359"/>
      <point x="55" y="1416" type="curve"/>
      <point x="78" y="1509" type="line"/>
      <point x="369" y="1455"/>
      <point x="548" y="1213"/>
    </contour>
  </outline>
</glyph>
<glyph name="comma" format="1">
  <advance width="393"/>
  <unicode hex="002C"/>
  <outline>
    <contour>
      <point x="163" y="-257" type="line"/>
      <point x="294" y="-157"/>
      <point x="309" y="-12"/>
      <point x="309" y="126" type="curve" smooth="yes"/>
      <point x="309" y="216" type="line"/>
      <point x="138" y="216" type="line"/>
      <point x="138" y="41" type="line"/>
      <point x="203" y="23" type="line"/>
      <point x="203" y="-118"/>
      <point x="142" y="-186"/>
      <point x="126" y="-204" type="curve"/>
    </contour>
  </outline>
</glyph>
<glyph name="hyphen" format="1">
  <advance width="474"/>
  <unicode hex="002D"/>
  <outline>
    <contour>
      <point x="458" y="291" type="line"/>
      <point x="458" y="348" type="line"/>
      <point x="75" y="348" type="line"/>
      <point x="75" y="291" type="line"/>
    </contour>
  </outline>
</glyph>
<glyph name="period" format="1">
  <advance width="469"/>
  <unicode hex="002E"/>
  <outline>
    <contour>
      <point x="312" y="0" type="line"/>
      <point x="312" y="218" type="line"/>
      <point x="163" y="218" type="line"/>
      <point x="163" y="0" type="line"/>
    </contour>
  </outline>
</glyph>
<glyph name="slash" format="1">
  <advance width="544"/>
  <unicode hex="002F"/>
  <outline>
    <contour>
      <point x="416" y="1492" type="line"/>
      <point x="527" y="1492" type="line"/>
      <point x="128" y="0" type="line"/>
      <point x="16" y="0" type="line"/>
    </contour>
  </outline>
</glyph>
<glyph name="zero" format="1">
  <advance width="1061"/>
  <unicode hex="0030"/>
  <outline>
    <contour>
      <point x="116" y="517" type="curve"/>
      <point x="116" y="286"/>
      <point x="224" y="-25"/>
      <point x="507" y="-25" type="curve"/>
      <point x="820" y="-25"/>
      <point x="948" y="280"/>
      <point x="948" y="554" type="curve"/>
      <point x="948" y="797"/>
      <point x="813" y="1049"/>
      <point x="540" y="1049" type="curve"/>
      <point x="252" y="1049"/>
      <point x="116" y="774"/>
    </contour>
    <contour>
      <point x="230" y="518" type="curve"/>
      <point x="230" y="546"/>
      <point x="231" y="665"/>
      <point x="231" y="690" type="curve"/>
      <point x="259" y="856"/>
      <point x="357" y="985"/>
      <point x="532" y="985" type="curve"/>
      <point x="768" y="985"/>
      <point x="850" y="790"/>
      <point x="850" y="579" type="curve"/>
      <point x="850" y="362"/>
      <point x="816" y="55"/>
      <point x="540" y="55" type="curve"/>
      <point x="266" y="55"/>
      <point x="230" y="298"/>
    </contour>
  </outline>
</glyph>
<glyph name="one" format="1">
  <advance width="464"/>
  <unicode hex="0031"/>
  <outline>
    <contour>
      <point x="209" y="850" type="line"/>
      <point x="209" y="34" type="line"/>
      <point x="209" y="23"/>
      <point x="268" y="0"/>
      <point x="276" y="0" type="curve"/>
      <point x="301" y="0"/>
      <point x="316" y="52"/>
      <point x="316" y="67" type="curve"/>
      <point x="300" y="1015" type="line"/>
      <point x="300" y="1038"/>
      <point x="293" y="1049"/>
      <point x="276" y="1049" type="curve"/>
      <point x="239" y="1049"/>
      <point x="0" y="856"/>
      <point x="0" y="809" type="curve"/>
      <point x="67" y="809"/>
      <point x="128" y="833"/>
      <point x="184" y="868" type="curve"/>
    </contour>
  </outline>
</glyph>
<glyph name="two" format="1">
  <advance width="979"/>
  <unicode hex="0032"/>
  <outline>
    <contour>
      <point x="790" y="768" type="curve"/>
      <point x="790" y="440"/>
      <point x="146" y="404"/>
      <point x="146" y="0" type="curve"/>
      <point x="910" y="0" type="line"/>
      <point x="910" y="7"/>
      <point x="906" y="41"/>
      <point x="905" y="50" type="curve"/>
      <point x="903" y="57"/>
      <point x="892" y="75"/>
      <point x="887" y="75" type="curve"/>
      <point x="282" y="75" type="line"/>
      <point x="270" y="75"/>
      <point x="264" y="95"/>
      <point x="264" y="107" type="curve"/>
      <point x="264" y="128"/>
      <point x="284" y="144"/>
      <point x="298" y="165" type="curve"/>
      <point x="458" y="374"/>
      <point x="892" y="462"/>
      <point x="892" y="774" type="curve"/>
      <point x="892" y="996"/>
      <point x="671" y="1049"/>
      <point x="491" y="1049" type="curve"/>
      <point x="341" y="1049"/>
      <point x="126" y="946"/>
      <point x="117" y="768" type="curve"/>
      <point x="127" y="757"/>
      <point x="150" y="720"/>
      <point x="174" y="720" type="curve"/>
      <point x="223" y="720"/>
      <point x="272" y="983"/>
      <point x="413" y="983" type="curve"/>
      <point x="625" y="983" type="line"/>
      <point x="717" y="983"/>
      <point x="790" y="843"/>
    </contour>
  </outline>
</glyph>
<glyph name="three" format="1">
  <advance width="1006"/>
  <unicode hex="0033"/>
  <outline>
    <contour>
      <point x="101" y="228" type="curve" smooth="yes"/>
      <point x="101" y="103"/>
      <point x="239" y="20"/>
      <point x="346" y="-7" type="curve"/>
      <point x="369" y="-7"/>
      <point x="458" y="-7"/>
      <point x="477" y="-25" type="curve"/>
      <point x="671" y="-25"/>
      <point x="885" y="46"/>
      <point x="885" y="291" type="curve" smooth="yes"/>
      <point x="885" y="452"/>
      <point x="718" y="517"/>
      <point x="718" y="554" type="curve" smooth="yes"/>
      <point x="718" y="556"/>
      <point x="720" y="561"/>
      <point x="720" y="563" type="curve"/>
      <point x="795" y="629"/>
      <point x="866" y="684"/>
      <point x="866" y="789" type="curve" smooth="yes"/>
      <point x="866" y="972"/>
      <point x="669" y="1049"/>
      <point x="516" y="1049" type="curve" smooth="yes"/>
      <point x="387" y="1049"/>
      <point x="134" y="1006"/>
      <point x="134" y="828" type="curve" smooth="yes"/>
      <point x="134" y="795"/>
      <point x="157" y="787"/>
      <point x="184" y="787" type="curve" smooth="yes"/>
      <point x="186" y="787"/>
      <point x="200" y="787"/>
      <point x="202" y="789" type="curve"/>
      <point x="209" y="807"/>
      <point x="254" y="900"/>
      <point x="266" y="918" type="curve" smooth="yes"/>
      <point x="268" y="922"/>
      <point x="278" y="933"/>
      <point x="280" y="935" type="curve"/>
      <point x="379" y="983" type="line"/>
      <point x="394" y="983"/>
      <point x="469" y="985"/>
      <point x="484" y="985" type="curve" smooth="yes"/>
      <point x="624" y="985"/>
      <point x="756" y="941"/>
      <point x="756" y="780" type="curve" smooth="yes"/>
      <point x="756" y="538"/>
      <point x="469" y="653"/>
      <point x="427" y="544" type="curve"/>
      <point x="444" y="529" type="line"/>
      <point x="600" y="502"/>
      <point x="770" y="479"/>
      <point x="770" y="286" type="curve" smooth="yes"/>
      <point x="770" y="119"/>
      <point x="625" y="39"/>
      <point x="474" y="39" type="curve" smooth="yes"/>
      <point x="224" y="39"/>
      <point x="228" y="288"/>
      <point x="143" y="288" type="curve" smooth="yes"/>
      <point x="101" y="288"/>
      <point x="101" y="266"/>
    </contour>
  </outline>
</glyph>
<glyph name="four" format="1">
  <advance width="911"/>
  <unicode hex="0034"/>
  <outline>
    <contour>
      <point x="534" y="223" type="curve"/>
      <point x="647" y="223"/>
      <point x="517" y="-7"/>
      <point x="622" y="-7" type="curve"/>
      <point x="629" y="-7"/>
      <point x="671" y="-7"/>
      <point x="671" y="12" type="curve"/>
      <point x="671" y="206" type="line"/>
      <point x="671" y="252"/>
      <point x="822" y="206"/>
      <point x="845" y="273" type="curve"/>
      <point x="827" y="323"/>
      <point x="720" y="321"/>
      <point x="697" y="321" type="curve"/>
      <point x="683" y="369" type="line"/>
      <point x="634" y="509"/>
      <point x="669" y="639"/>
      <point x="663" y="776" type="curve"/>
      <point x="661" y="809"/>
      <point x="653" y="970"/>
      <point x="649" y="1004" type="curve"/>
      <point x="644" y="1025"/>
      <point x="621" y="1023"/>
      <point x="605" y="1023" type="curve"/>
      <point x="566" y="1023"/>
      <point x="566" y="1015"/>
      <point x="534" y="971" type="curve"/>
      <point x="28" y="304" type="line"/>
      <point x="23" y="296"/>
      <point x="12" y="263"/>
      <point x="12" y="254" type="curve"/>
      <point x="12" y="251"/>
      <point x="23" y="239"/>
      <point x="28" y="239" type="curve"/>
      <point x="181" y="215"/>
      <point x="399" y="218"/>
    </contour>
    <contour>
      <point x="143" y="338" type="line"/>
      <point x="566" y="890" type="line"/>
      <point x="566" y="338" type="line"/>
      <point x="566" y="324"/>
      <point x="518" y="304"/>
      <point x="518" y="304" type="curve"/>
      <point x="143" y="304" type="line"/>
    </contour>
  </outline>
</glyph>
<glyph name="five" format="1">
  <advance width="938"/>
  <unicode hex="0035"/>
  <outline>
    <contour>
      <point x="103" y="228" type="curve" smooth="yes"/>
      <point x="103" y="52"/>
      <point x="333" y="-23"/>
      <point x="475" y="-23" type="curve" smooth="yes"/>
      <point x="681" y="-23"/>
      <point x="862" y="150"/>
      <point x="862" y="353" type="curve" smooth="yes"/>
      <point x="862" y="574"/>
      <point x="707" y="703"/>
      <point x="500" y="703" type="curve" smooth="yes"/>
      <point x="424" y="703"/>
      <point x="348" y="654"/>
      <point x="279" y="654" type="curve" smooth="yes"/>
      <point x="263" y="654"/>
      <point x="264" y="673"/>
      <point x="264" y="685" type="curve" smooth="yes"/>
      <point x="264" y="751"/>
      <point x="257" y="897"/>
      <point x="329" y="943" type="curve"/>
      <point x="387" y="946"/>
      <point x="659" y="956"/>
      <point x="715" y="960" type="curve" smooth="yes"/>
      <point x="717" y="960"/>
      <point x="732" y="958"/>
      <point x="733" y="960" type="curve"/>
      <point x="742" y="962"/>
      <point x="787" y="972"/>
      <point x="797" y="976" type="curve"/>
      <point x="797" y="992" type="line" smooth="yes"/>
      <point x="797" y="1001"/>
      <point x="797" y="1025"/>
      <point x="780" y="1025" type="curve" smooth="yes"/>
      <point x="264" y="1025" type="line"/>
      <point x="249" y="1010" type="line"/>
      <point x="247" y="1006"/>
      <point x="223" y="905"/>
      <point x="216" y="864" type="curve" smooth="yes"/>
      <point x="207" y="813"/>
      <point x="174" y="576"/>
      <point x="168" y="525" type="curve"/>
      <point x="168" y="525"/>
      <point x="188" y="475"/>
      <point x="200" y="475" type="curve" smooth="yes"/>
      <point x="236" y="475"/>
      <point x="345" y="638"/>
      <point x="481" y="638" type="curve" smooth="yes"/>
      <point x="657" y="638"/>
      <point x="751" y="518"/>
      <point x="751" y="351" type="curve" smooth="yes"/>
      <point x="751" y="178"/>
      <point x="636" y="41"/>
      <point x="459" y="41" type="curve" smooth="yes"/>
      <point x="247" y="41"/>
      <point x="188" y="284"/>
      <point x="159" y="284" type="curve" smooth="yes"/>
      <point x="127" y="284"/>
      <point x="103" y="259"/>
    </contour>
  </outline>
</glyph>
<glyph name="six" format="1">
  <advance width="1011"/>
  <unicode hex="0036"/>
  <outline>
    <contour>
      <point x="109" y="452" type="curve"/>
      <point x="109" y="204"/>
      <point x="211" y="-25"/>
      <point x="493" y="-25" type="curve"/>
      <point x="710" y="-25"/>
      <point x="922" y="109"/>
      <point x="922" y="353" type="curve"/>
      <point x="922" y="568"/>
      <point x="757" y="702"/>
      <point x="549" y="702" type="curve"/>
      <point x="427" y="702"/>
      <point x="341" y="678"/>
      <point x="243" y="602" type="curve"/>
      <point x="243" y="608"/>
      <point x="241" y="630"/>
      <point x="241" y="636" type="curve"/>
      <point x="241" y="840"/>
      <point x="427" y="983"/>
      <point x="619" y="983" type="curve"/>
      <point x="688" y="983"/>
      <point x="749" y="948"/>
      <point x="817" y="948" type="curve"/>
      <point x="833" y="948"/>
      <point x="864" y="946"/>
      <point x="855" y="981" type="curve"/>
      <point x="838" y="1044"/>
      <point x="695" y="1049"/>
      <point x="649" y="1049" type="curve"/>
      <point x="311" y="1049"/>
      <point x="109" y="772"/>
    </contour>
    <contour>
      <point x="227" y="343" type="curve"/>
      <point x="227" y="527"/>
      <point x="369" y="637"/>
      <point x="542" y="637" type="curve"/>
      <point x="697" y="637"/>
      <point x="806" y="522"/>
      <point x="806" y="372" type="curve"/>
      <point x="806" y="186"/>
      <point x="715" y="37"/>
      <point x="517" y="37" type="curve"/>
      <point x="329" y="37"/>
      <point x="227" y="163"/>
    </contour>
  </outline>
</glyph>
<glyph name="seven" format="1">
  <advance width="778"/>
  <unicode hex="0037"/>
  <outline>
    <contour>
      <point x="176" y="55" type="curve"/>
      <point x="176" y="12"/>
      <point x="178" y="-2"/>
      <point x="221" y="-2" type="curve"/>
      <point x="294" y="-2"/>
      <point x="333" y="296"/>
      <point x="372" y="372" type="curve"/>
      <point x="462" y="542"/>
      <point x="586" y="684"/>
      <point x="684" y="847" type="curve"/>
      <point x="688" y="855"/>
      <point x="754" y="986"/>
      <point x="749" y="992" type="curve"/>
      <point x="715" y="1025" type="line"/>
      <point x="50" y="1025" type="line"/>
      <point x="32" y="1025"/>
      <point x="32" y="1002"/>
      <point x="32" y="992" type="curve"/>
      <point x="32" y="983"/>
      <point x="32" y="960"/>
      <point x="50" y="960" type="curve"/>
      <point x="568" y="960" type="line"/>
      <point x="617" y="960"/>
      <point x="637" y="958"/>
      <point x="637" y="921" type="curve"/>
      <point x="637" y="914"/>
      <point x="636" y="897"/>
      <point x="634" y="895" type="curve"/>
      <point x="308" y="440" type="line"/>
      <point x="236" y="338"/>
      <point x="176" y="182"/>
    </contour>
  </outline>
</glyph>
<glyph name="eight" format="1">
  <advance width="1056"/>
  <unicode hex="0038"/>
  <outline>
    <contour>
      <point x="109" y="291" type="curve"/>
      <point x="109" y="85"/>
      <point x="329" y="-25"/>
      <point x="509" y="-25" type="curve"/>
      <point x="717" y="-25"/>
      <point x="940" y="71"/>
      <point x="940" y="309" type="curve"/>
      <point x="940" y="483"/>
      <point x="775" y="548"/>
      <point x="775" y="584" type="curve"/>
      <point x="775" y="586"/>
      <point x="775" y="590"/>
      <point x="776" y="592" type="curve"/>
      <point x="864" y="673"/>
      <point x="892" y="708"/>
      <point x="892" y="816" type="curve"/>
      <point x="892" y="945"/>
      <point x="782" y="1018"/>
      <point x="663" y="1045" type="curve"/>
      <point x="644" y="1045"/>
      <point x="559" y="1049"/>
      <point x="542" y="1049" type="curve"/>
      <point x="371" y="1049"/>
      <point x="174" y="990"/>
      <point x="174" y="790" type="curve"/>
      <point x="174" y="692"/>
      <point x="213" y="659"/>
      <point x="289" y="592" type="curve"/>
      <point x="289" y="590"/>
      <point x="291" y="586"/>
      <point x="291" y="584" type="curve"/>
      <point x="291" y="557"/>
      <point x="109" y="452"/>
    </contour>
    <contour>
      <point x="207" y="282" type="curve"/>
      <point x="207" y="460"/>
      <point x="371" y="546"/>
      <point x="523" y="546" type="curve"/>
      <point x="681" y="546"/>
      <point x="843" y="484"/>
      <point x="843" y="304" type="curve"/>
      <point x="843" y="142"/>
      <point x="707" y="39"/>
      <point x="550" y="39" type="curve"/>
      <point x="411" y="39"/>
      <point x="207" y="109"/>
    </contour>
    <contour>
      <point x="255" y="809" type="curve"/>
      <point x="255" y="943"/>
      <point x="420" y="1001"/>
      <point x="523" y="1001" type="curve"/>
      <point x="647" y="1001"/>
      <point x="809" y="965"/>
      <point x="809" y="809" type="curve"/>
      <point x="809" y="671"/>
      <point x="678" y="622"/>
      <point x="559" y="622" type="curve"/>
      <point x="443" y="622"/>
      <point x="255" y="651"/>
    </contour>
  </outline>
</glyph>
<glyph name="nine" format="1">
  <advance width="958"/>
  <unicode hex="0039"/>
  <outline>
    <contour>
      <point x="763" y="523" type="curve" smooth="yes"/>
      <point x="679" y="436"/>
      <point x="564" y="391"/>
      <point x="445" y="391" type="curve" smooth="yes"/>
      <point x="300" y="391"/>
      <point x="178" y="486"/>
      <point x="178" y="667" type="curve" smooth="yes"/>
      <point x="178" y="865"/>
      <point x="327" y="963"/>
      <point x="475" y="963" type="curve" smooth="yes"/>
      <point x="732" y="963"/>
      <point x="774" y="745"/>
    </contour>
    <contour>
      <point x="759" y="424" type="curve"/>
      <point x="759" y="209"/>
      <point x="548" y="46"/>
      <point x="372" y="46" type="curve" smooth="yes"/>
      <point x="309" y="46"/>
      <point x="248" y="61"/>
      <point x="182" y="83" type="curve"/>
      <point x="159" y="5" type="line"/>
      <point x="602" y="-116"/>
      <point x="870" y="159"/>
      <point x="870" y="570" type="curve" smooth="yes"/>
      <point x="870" y="849"/>
      <point x="738" y="1049"/>
      <point x="477" y="1049" type="curve" smooth="yes"/>
      <point x="234" y="1049"/>
      <point x="65" y="879"/>
      <point x="65" y="636" type="curve" smooth="yes"/>
      <point x="65" y="474"/>
      <point x="204" y="306"/>
      <point x="427" y="306" type="curve" smooth="yes"/>
      <point x="544" y="306"/>
      <point x="645" y="338"/>
    </contour>
  </outline>
</glyph>
<glyph name="colon" format="1">
  <advance width="469"/>
  <unicode hex="003A"/>
  <outline>
    <contour>
      <point x="312" y="20" type="line"/>
      <point x="312" y="238" type="line"/>
      <point x="163" y="238" type="line"/>
      <point x="163" y="20" type="line"/>
    </contour>
    <contour>
      <point x="312" y="625" type="line"/>
      <point x="312" y="843" type="line"/>
      <point x="163" y="843" type="line"/>
      <point x="163" y="625" type="line"/>
    </contour>
  </outline>
</glyph>
<glyph name="semicolon" format="1">
  <advance width="384"/>
  <unicode hex="003B"/>
  <outline>
    <contour>
      <point x="200" y="55" type="curve" smooth="yes"/>
      <point x="200" y="-67"/>
      <point x="143" y="-116"/>
      <point x="143" y="-116" type="curve"/>
      <point x="143" y="-186" type="line"/>
      <point x="278" y="-103"/>
      <point x="293" y="34"/>
      <point x="293" y="157" type="curve" smooth="yes"/>
      <point x="293" y="238" type="line"/>
      <point x="143" y="238" type="line"/>
      <point x="143" y="100" type="line" smooth="yes"/>
      <point x="143" y="69"/>
      <point x="200" y="78"/>
    </contour>
    <contour>
      <point x="293" y="625" type="line"/>
      <point x="293" y="843" type="line"/>
      <point x="143" y="843" type="line"/>
      <point x="143" y="625" type="line"/>
    </contour>
  </outline>
</glyph>
<glyph name="question" format="1">
  <advance width="1038"/>
  <unicode hex="003F"/>
  <outline>
    <contour>
      <point x="442" y="181" type="line"/>
      <point x="442" y="-12" type="line"/>
      <point x="538" y="-12" type="line"/>
      <point x="538" y="181" type="line"/>
    </contour>
    <contour>
      <point x="729" y="820" type="curve" smooth="yes"/>
      <point x="596" y="707"/>
      <point x="444" y="578"/>
      <point x="444" y="278" type="curve"/>
      <point x="540" y="278" type="line"/>
      <point x="540" y="525"/>
      <point x="655" y="638"/>
      <point x="787" y="751" type="curve" smooth="yes"/>
      <point x="914" y="858"/>
      <point x="990" y="996"/>
      <point x="990" y="1128" type="curve" smooth="yes"/>
      <point x="990" y="1337"/>
      <point x="845" y="1521"/>
      <point x="529" y="1521" type="curve" smooth="yes"/>
      <point x="365" y="1521"/>
      <point x="153" y="1452"/>
      <point x="28" y="1238" type="curve"/>
      <point x="107" y="1188" type="line"/>
      <point x="132" y="1236"/>
      <point x="262" y="1433"/>
      <point x="531" y="1433" type="curve" smooth="yes"/>
      <point x="783" y="1433"/>
      <point x="887" y="1301"/>
      <point x="887" y="1128" type="curve" smooth="yes"/>
      <point x="887" y="1020"/>
      <point x="828" y="906"/>
    </contour>
  </outline>
</glyph>
<glyph name="A" format="1">
  <advance width="1263"/>
  <unicode hex="0041"/>
  <outline>
    <contour>
      <point x="63" y="0" type="line"/>
      <point x="182" y="0" type="line"/>
      <point x="312" y="413" type="line"/>
      <point x="951" y="413" type="line"/>
      <point x="1090" y="0" type="line"/>
      <point x="1201" y="0" type="line"/>
      <point x="707" y="1492" type="line"/>
      <point x="556" y="1492" type="line"/>
    </contour>
    <contour>
      <point x="632" y="1416" type="line"/>
      <point x="924" y="499" type="line"/>
      <point x="338" y="499" type="line"/>
    </contour>
  </outline>
</glyph>
<glyph name="B" format="1">
  <advance width="1399"/>
  <unicode hex="0042"/>
  <outline>
    <contour>
      <point x="275" y="759" type="line"/>
      <point x="832" y="759" type="line" smooth="yes"/>
      <point x="1068" y="759"/>
      <point x="1156" y="605"/>
      <point x="1156" y="418" type="curve" smooth="yes"/>
      <point x="1156" y="126"/>
      <point x="962" y="84"/>
      <point x="754" y="84" type="curve" smooth="yes"/>
      <point x="275" y="84" type="line"/>
    </contour>
    <contour>
      <point x="275" y="1407" type="line"/>
      <point x="673" y="1407" type="line" smooth="yes"/>
      <point x="901" y="1407"/>
      <point x="1128" y="1410"/>
      <point x="1128" y="1128" type="curve" smooth="yes"/>
      <point x="1128" y="965"/>
      <point x="1031" y="849"/>
      <point x="828" y="849" type="curve" smooth="yes"/>
      <point x="275" y="849" type="line"/>
    </contour>
    <contour>
      <point x="163" y="0" type="line"/>
      <point x="765" y="0" type="line" smooth="yes"/>
      <point x="1115" y="0"/>
      <point x="1271" y="148"/>
      <point x="1271" y="419" type="curve" smooth="yes"/>
      <point x="1271" y="608"/>
      <point x="1199" y="761"/>
      <point x="969" y="804" type="curve"/>
      <point x="1171" y="840"/>
      <point x="1235" y="976"/>
      <point x="1235" y="1136" type="curve" smooth="yes"/>
      <point x="1235" y="1492"/>
      <point x="889" y="1492"/>
      <point x="639" y="1492" type="curve" smooth="yes"/>
      <point x="163" y="1492" type="line"/>
    </contour>
  </outline>
</glyph>
<glyph name="C" format="1">
  <advance width="1371"/>
  <unicode hex="0043"/>
  <outline>
    <contour>
      <point x="1165" y="389" type="line"/>
      <point x="1109" y="173"/>
      <point x="978" y="71"/>
      <point x="732" y="71" type="curve" smooth="yes"/>
      <point x="362" y="71"/>
      <point x="245" y="280"/>
      <point x="245" y="749" type="curve" smooth="yes"/>
      <point x="245" y="1151"/>
      <point x="343" y="1425"/>
      <point x="732" y="1425" type="curve" smooth="yes"/>
      <point x="985" y="1425"/>
      <point x="1106" y="1304"/>
      <point x="1156" y="1084" type="curve"/>
      <point x="1262" y="1101" type="line"/>
      <point x="1188" y="1401"/>
      <point x="996" y="1521"/>
      <point x="732" y="1521" type="curve" smooth="yes"/>
      <point x="359" y="1521"/>
      <point x="124" y="1305"/>
      <point x="124" y="749" type="curve" smooth="yes"/>
      <point x="124" y="153"/>
      <point x="359" y="-25"/>
      <point x="732" y="-25" type="curve" smooth="yes"/>
      <point x="986" y="-25"/>
      <point x="1190" y="82"/>
      <point x="1271" y="361" type="curve"/>
    </contour>
  </outline>
</glyph>
<glyph name="D" format="1">
  <advance width="1317"/>
  <unicode hex="0044"/>
  <outline>
    <contour>
      <point x="163" y="1492" type="line"/>
      <point x="163" y="0" type="line"/>
      <point x="619" y="0" type="line" smooth="yes"/>
      <point x="1006" y="0"/>
      <point x="1192" y="168"/>
      <point x="1192" y="751" type="curve" smooth="yes"/>
      <point x="1192" y="1333"/>
      <point x="986" y="1492"/>
      <point x="619" y="1492" type="curve" smooth="yes"/>
    </contour>
    <contour>
      <point x="619" y="1399" type="line" smooth="yes"/>
      <point x="1006" y="1399"/>
      <point x="1084" y="1176"/>
      <point x="1084" y="749" type="curve" smooth="yes"/>
      <point x="1084" y="321"/>
      <point x="1006" y="93"/>
      <point x="619" y="93" type="curve" smooth="yes"/>
      <point x="275" y="93" type="line"/>
      <point x="275" y="1399" type="line"/>
    </contour>
  </outline>
</glyph>
<glyph name="E" format="1">
  <advance width="1186"/>
  <unicode hex="0045"/>
  <outline>
    <contour>
      <point x="1161" y="0" type="line"/>
      <point x="1161" y="92" type="line"/>
      <point x="275" y="92" type="line"/>
      <point x="275" y="756" type="line"/>
      <point x="1051" y="756" type="line"/>
      <point x="1051" y="847" type="line"/>
      <point x="275" y="847" type="line"/>
      <point x="275" y="1402" type="line"/>
      <point x="1150" y="1402" type="line"/>
      <point x="1150" y="1492" type="line"/>
      <point x="163" y="1492" type="line"/>
      <point x="163" y="0" type="line"/>
    </contour>
  </outline>
</glyph>
<glyph name="F" format="1">
  <advance width="1171"/>
  <unicode hex="0046"/>
  <outline>
    <contour>
      <point x="275" y="756" type="line"/>
      <point x="1060" y="756" type="line"/>
      <point x="1060" y="847" type="line"/>
      <point x="275" y="847" type="line"/>
      <point x="275" y="1402" type="line"/>
      <point x="1171" y="1402" type="line"/>
      <point x="1171" y="1492" type="line"/>
      <point x="163" y="1492" type="line"/>
      <point x="163" y="0" type="line"/>
      <point x="275" y="0" type="line"/>
    </contour>
  </outline>
</glyph>
<glyph name="G" format="1">
  <advance width="1382"/>
  <unicode hex="0047"/>
  <outline>
    <contour>
      <point x="1240" y="1165" type="line"/>
      <point x="1152" y="1419"/>
      <point x="946" y="1521"/>
      <point x="733" y="1521" type="curve" smooth="yes"/>
      <point x="381" y="1521"/>
      <point x="124" y="1347"/>
      <point x="124" y="742" type="curve" smooth="yes"/>
      <point x="124" y="142"/>
      <point x="359" y="-25"/>
      <point x="714" y="-25" type="curve" smooth="yes"/>
      <point x="921" y="-25"/>
      <point x="1084" y="83"/>
      <point x="1146" y="216" type="curve"/>
      <point x="1171" y="0" type="line"/>
      <point x="1235" y="0" type="line"/>
      <point x="1246" y="195"/>
      <point x="1247" y="436"/>
      <point x="1247" y="582" type="curve" smooth="yes"/>
      <point x="1247" y="816" type="line"/>
      <point x="730" y="816" type="line"/>
      <point x="730" y="710" type="line"/>
      <point x="1136" y="710" type="line"/>
      <point x="1136" y="474" type="line" smooth="yes"/>
      <point x="1136" y="200"/>
      <point x="903" y="71"/>
      <point x="714" y="71" type="curve" smooth="yes"/>
      <point x="338" y="71"/>
      <point x="245" y="327"/>
      <point x="245" y="742" type="curve" smooth="yes"/>
      <point x="245" y="1213"/>
      <point x="374" y="1425"/>
      <point x="732" y="1425" type="curve" smooth="yes"/>
      <point x="924" y="1425"/>
      <point x="1073" y="1335"/>
      <point x="1140" y="1117" type="curve"/>
    </contour>
  </outline>
</glyph>
<glyph name="H" format="1">
  <advance width="1450"/>
  <unicode hex="0048"/>
  <outline>
    <contour>
      <point x="1176" y="756" type="line"/>
      <point x="1176" y="0" type="line"/>
      <point x="1286" y="0" type="line"/>
      <point x="1286" y="1492" type="line"/>
      <point x="1176" y="1492" type="line"/>
      <point x="1176" y="847" type="line"/>
      <point x="275" y="847" type="line"/>
      <point x="275" y="1492" type="line"/>
      <point x="163" y="1492" type="line"/>
      <point x="163" y="0" type="line"/>
      <point x="275" y="0" type="line"/>
      <point x="275" y="756" type="line"/>
    </contour>
  </outline>
</glyph>
<glyph name="I" format="1">
  <advance width="428"/>
  <unicode hex="0049"/>
  <outline>
    <contour>
      <point x="163" y="1492" type="line"/>
      <point x="275" y="1492" type="line"/>
      <point x="275" y="0" type="line"/>
      <point x="163" y="0" type="line"/>
    </contour>
  </outline>
</glyph>
<glyph name="J" format="1">
  <advance width="1117"/>
  <unicode hex="004A"/>
  <outline>
    <contour>
      <point x="5" y="393" type="curve" smooth="yes"/>
      <point x="5" y="140"/>
      <point x="209" y="-25"/>
      <point x="452" y="-25" type="curve" smooth="yes"/>
      <point x="742" y="-25"/>
      <point x="970" y="140"/>
      <point x="970" y="449" type="curve" smooth="yes"/>
      <point x="970" y="1472" type="line" smooth="yes"/>
      <point x="970" y="1496"/>
      <point x="929" y="1494"/>
      <point x="921" y="1494" type="curve" smooth="yes"/>
      <point x="914" y="1494"/>
      <point x="897" y="1490"/>
      <point x="890" y="1490" type="curve"/>
      <point x="852" y="349" type="line" smooth="yes"/>
      <point x="845" y="153"/>
      <point x="671" y="53"/>
      <point x="499" y="53" type="curve" smooth="yes"/>
      <point x="60" y="53"/>
      <point x="134" y="469"/>
      <point x="75" y="469" type="curve" smooth="yes"/>
      <point x="23" y="469"/>
      <point x="5" y="434"/>
    </contour>
  </outline>
</glyph>
<glyph name="K" format="1">
  <advance width="1357"/>
  <unicode hex="004B"/>
  <outline>
    <contour>
      <point x="163" y="1492" type="line"/>
      <point x="275" y="1492" type="line"/>
      <point x="275" y="722" type="line"/>
      <point x="1033" y="1492" type="line"/>
      <point x="1178" y="1492" type="line"/>
      <point x="655" y="967" type="line"/>
      <point x="1257" y="0" type="line"/>
      <point x="1124" y="0" type="line"/>
      <point x="577" y="889" type="line"/>
      <point x="275" y="586" type="line"/>
      <point x="275" y="0" type="line"/>
      <point x="163" y="0" type="line"/>
    </contour>
  </outline>
</glyph>
<glyph name="L" format="1">
  <advance width="1061"/>
  <unicode hex="004C"/>
  <outline>
    <contour>
      <point x="163" y="1492" type="line"/>
      <point x="275" y="1492" type="line"/>
      <point x="275" y="92" type="line"/>
      <point x="1061" y="92" type="line"/>
      <point x="1061" y="0" type="line"/>
      <point x="163" y="0" type="line"/>
    </contour>
  </outline>
</glyph>
<glyph name="M" format="1">
  <advance width="1630"/>
  <unicode hex="004D"/>
  <outline>
    <contour>
      <point x="1357" y="1342" type="line"/>
      <point x="1357" y="0" type="line"/>
      <point x="1466" y="0" type="line"/>
      <point x="1466" y="1492" type="line"/>
      <point x="1309" y="1492" type="line"/>
      <point x="820" y="325" type="line"/>
      <point x="332" y="1492" type="line"/>
      <point x="164" y="1492" type="line"/>
      <point x="164" y="0" type="line"/>
      <point x="275" y="0" type="line"/>
      <point x="275" y="1349" type="line"/>
      <point x="761" y="212" type="line"/>
      <point x="881" y="212" type="line"/>
    </contour>
  </outline>
</glyph>
<glyph name="N" format="1">
  <advance width="1540"/>
  <unicode hex="004E"/>
  <outline>
    <contour>
      <point x="1281" y="0" type="line"/>
      <point x="1377" y="0" type="line"/>
      <point x="1377" y="1492" type="line"/>
      <point x="1278" y="1492" type="line"/>
      <point x="1278" y="172" type="line"/>
      <point x="306" y="1492" type="line"/>
      <point x="163" y="1492" type="line"/>
      <point x="163" y="0" type="line"/>
      <point x="264" y="0" type="line"/>
      <point x="264" y="1367" type="line"/>
    </contour>
  </outline>
</glyph>
<glyph name="O" format="1">
  <advance width="1468"/>
  <unicode hex="004F"/>
  <outline>
    <contour>
      <point x="734" y="71" type="curve" smooth="yes"/>
      <point x="367" y="71"/>
      <point x="248" y="280"/>
      <point x="248" y="749" type="curve" smooth="yes"/>
      <point x="248" y="1178"/>
      <point x="346" y="1425"/>
      <point x="734" y="1425" type="curve" smooth="yes"/>
      <point x="1124" y="1425"/>
      <point x="1222" y="1178"/>
      <point x="1222" y="749" type="curve" smooth="yes"/>
      <point x="1222" y="280"/>
      <point x="1105" y="71"/>
    </contour>
    <contour>
      <point x="734" y="-25" type="curve" smooth="yes"/>
      <point x="1108" y="-25"/>
      <point x="1344" y="153"/>
      <point x="1344" y="749" type="curve" smooth="yes"/>
      <point x="1344" y="1332"/>
      <point x="1108" y="1521"/>
      <point x="734" y="1521" type="curve" smooth="yes"/>
      <point x="362" y="1521"/>
      <point x="127" y="1332"/>
      <point x="127" y="749" type="curve" smooth="yes"/>
      <point x="127" y="153"/>
      <point x="362" y="-25"/>
    </contour>
  </outline>
</glyph>
<glyph name="P" format="1">
  <advance width="1292"/>
  <unicode hex="0050"/>
  <outline>
    <contour>
      <point x="1276" y="1108" type="curve" smooth="yes"/>
      <point x="1276" y="1357"/>
      <point x="1103" y="1492"/>
      <point x="697" y="1492" type="curve" smooth="yes"/>
      <point x="163" y="1492" type="line"/>
      <point x="163" y="0" type="line"/>
      <point x="280" y="0" type="line"/>
      <point x="280" y="692" type="line"/>
      <point x="679" y="692" type="line" smooth="yes"/>
      <point x="1088" y="692"/>
      <point x="1276" y="830"/>
    </contour>
    <contour>
      <point x="288" y="785" type="line"/>
      <point x="288" y="1399" type="line"/>
      <point x="660" y="1399" type="line" smooth="yes"/>
      <point x="880" y="1399"/>
      <point x="1162" y="1380"/>
      <point x="1162" y="1100" type="curve" smooth="yes"/>
      <point x="1162" y="817"/>
      <point x="898" y="785"/>
      <point x="671" y="785" type="curve" smooth="yes"/>
    </contour>
  </outline>
</glyph>
<glyph name="Q" format="1">
  <advance width="1458"/>
  <unicode hex="0051"/>
  <outline>
    <contour>
      <point x="895" y="32" type="line"/>
      <point x="1178" y="-304" type="line"/>
      <point x="1251" y="-227" type="line"/>
      <point x="976" y="101" type="line"/>
    </contour>
    <component base="O" xOffset="-14"/>
  </outline>
</glyph>
<glyph name="R" format="1">
  <advance width="1406"/>
  <unicode hex="0052"/>
  <outline>
    <contour>
      <point x="832" y="673" type="line"/>
      <point x="1146" y="0" type="line"/>
      <point x="1268" y="0" type="line"/>
      <point x="951" y="688" type="line"/>
      <point x="941" y="720" type="line"/>
      <point x="1156" y="780"/>
      <point x="1276" y="898"/>
      <point x="1276" y="1101" type="curve" smooth="yes"/>
      <point x="1276" y="1351"/>
      <point x="1103" y="1492"/>
      <point x="697" y="1492" type="curve" smooth="yes"/>
      <point x="163" y="1492" type="line"/>
      <point x="163" y="0" type="line"/>
      <point x="280" y="0" type="line"/>
      <point x="280" y="700" type="line"/>
      <point x="819" y="700" type="line"/>
    </contour>
    <contour>
      <point x="288" y="795" type="line"/>
      <point x="288" y="1407" type="line"/>
      <point x="660" y="1407" type="line" smooth="yes"/>
      <point x="879" y="1407"/>
      <point x="1152" y="1387"/>
      <point x="1152" y="1098" type="curve" smooth="yes"/>
      <point x="1152" y="822"/>
      <point x="900" y="795"/>
      <point x="671" y="795" type="curve" smooth="yes"/>
    </contour>
  </outline>
</glyph>
<glyph name="S" format="1">
  <advance width="1344"/>
  <unicode hex="0053"/>
  <outline>
    <contour>
      <point x="688" y="-25" type="curve" smooth="yes"/>
      <point x="1008" y="-25"/>
      <point x="1233" y="130"/>
      <point x="1233" y="406" type="curve" smooth="yes"/>
      <point x="1233" y="630"/>
      <point x="1109" y="738"/>
      <point x="910" y="804" type="curve" smooth="yes"/>
      <point x="518" y="931" type="line" smooth="yes"/>
      <point x="410" y="967"/>
      <point x="312" y="1023"/>
      <point x="312" y="1156" type="curve" smooth="yes"/>
      <point x="312" y="1351"/>
      <point x="499" y="1412"/>
      <point x="708" y="1412" type="curve" smooth="yes"/>
      <point x="878" y="1412"/>
      <point x="1030" y="1326"/>
      <point x="1109" y="1159" type="curve"/>
      <point x="1199" y="1224" type="line"/>
      <point x="1077" y="1425"/>
      <point x="918" y="1509"/>
      <point x="669" y="1509" type="curve" smooth="yes"/>
      <point x="443" y="1509"/>
      <point x="195" y="1412"/>
      <point x="195" y="1152" type="curve" smooth="yes"/>
      <point x="195" y="955"/>
      <point x="351" y="866"/>
      <point x="518" y="809" type="curve" smooth="yes"/>
      <point x="892" y="685" type="line" smooth="yes"/>
      <point x="1049" y="632"/>
      <point x="1113" y="518"/>
      <point x="1113" y="401" type="curve" smooth="yes"/>
      <point x="1113" y="143"/>
      <point x="880" y="80"/>
      <point x="692" y="80" type="curve" smooth="yes"/>
      <point x="411" y="80"/>
      <point x="255" y="195"/>
      <point x="207" y="460" type="curve"/>
      <point x="93" y="432" type="line"/>
      <point x="132" y="69"/>
      <point x="462" y="-25"/>
    </contour>
  </outline>
</glyph>
<glyph name="T" format="1">
  <advance width="1157"/>
  <unicode hex="0054"/>
  <outline>
    <contour>
      <point x="23" y="1494" type="line"/>
      <point x="23" y="1402" type="line"/>
      <point x="518" y="1402" type="line"/>
      <point x="518" y="0" type="line"/>
      <point x="639" y="0" type="line"/>
      <point x="639" y="1402" type="line"/>
      <point x="1135" y="1402" type="line"/>
      <point x="1135" y="1494" type="line"/>
    </contour>
  </outline>
</glyph>
<glyph name="U" format="1">
  <advance width="1402"/>
  <unicode hex="0055"/>
  <outline>
    <contour>
      <point x="1125" y="1492" type="line"/>
      <point x="1125" y="609" type="line" smooth="yes"/>
      <point x="1125" y="282"/>
      <point x="1052" y="78"/>
      <point x="702" y="78" type="curve" smooth="yes"/>
      <point x="353" y="78"/>
      <point x="278" y="282"/>
      <point x="278" y="609" type="curve" smooth="yes"/>
      <point x="278" y="1492" type="line"/>
      <point x="148" y="1492" type="line"/>
      <point x="148" y="609" type="line" smooth="yes"/>
      <point x="148" y="114"/>
      <point x="369" y="-25"/>
      <point x="702" y="-25" type="curve" smooth="yes"/>
      <point x="1031" y="-25"/>
      <point x="1256" y="114"/>
      <point x="1256" y="609" type="curve" smooth="yes"/>
      <point x="1256" y="1492" type="line"/>
    </contour>
  </outline>
</glyph>
<glyph name="V" format="1">
  <advance width="1231"/>
  <unicode hex="0056"/>
  <outline>
    <contour>
      <point x="172" y="1492" type="line"/>
      <point x="60" y="1492" type="line"/>
      <point x="559" y="0" type="line"/>
      <point x="651" y="0" type="line"/>
      <point x="1174" y="1492" type="line"/>
      <point x="1061" y="1492" type="line"/>
      <point x="611" y="189" type="line"/>
    </contour>
  </outline>
</glyph>
<glyph name="W" format="1">
  <advance width="1951"/>
  <unicode hex="0057"/>
  <outline>
    <contour>
      <point x="1344" y="0" type="line"/>
      <point x="1428" y="0" type="line"/>
      <point x="1849" y="1490" type="line"/>
      <point x="1744" y="1490" type="line"/>
      <point x="1385" y="193" type="line"/>
      <point x="1030" y="1490" type="line"/>
      <point x="965" y="1490" type="line"/>
      <point x="572" y="215" type="line"/>
      <point x="215" y="1490" type="line"/>
      <point x="101" y="1490" type="line"/>
      <point x="523" y="0" type="line"/>
      <point x="595" y="0" type="line"/>
      <point x="990" y="1247" type="line"/>
    </contour>
  </outline>
</glyph>
<glyph name="X" format="1">
  <advance width="1472"/>
  <unicode hex="0058"/>
  <outline>
    <contour>
      <point x="301" y="1492" type="line"/>
      <point x="165" y="1492" type="line"/>
      <point x="669" y="780" type="line"/>
      <point x="117" y="0" type="line"/>
      <point x="255" y="0" type="line"/>
      <point x="738" y="683" type="line"/>
      <point x="1221" y="0" type="line"/>
      <point x="1352" y="0" type="line"/>
      <point x="804" y="776" type="line"/>
      <point x="1312" y="1492" type="line"/>
      <point x="1174" y="1492" type="line"/>
      <point x="736" y="875" type="line"/>
    </contour>
  </outline>
</glyph>
<glyph name="Y" format="1">
  <advance width="1152"/>
  <unicode hex="0059"/>
  <outline>
    <contour>
      <point x="525" y="574" type="line"/>
      <point x="525" y="0" type="line"/>
      <point x="540" y="0"/>
      <point x="602" y="5"/>
      <point x="617" y="8" type="curve"/>
      <point x="621" y="8"/>
      <point x="636" y="22"/>
      <point x="636" y="28" type="curve"/>
      <point x="634" y="98"/>
      <point x="634" y="424"/>
      <point x="636" y="493" type="curve"/>
      <point x="639" y="604"/>
      <point x="708" y="681"/>
      <point x="759" y="775" type="curve"/>
      <point x="860" y="971"/>
      <point x="1101" y="1436"/>
      <point x="1101" y="1441" type="curve"/>
      <point x="1101" y="1489" type="line"/>
      <point x="1069" y="1489"/>
      <point x="1036" y="1490"/>
      <point x="1018" y="1460" type="curve"/>
      <point x="595" y="679" type="line"/>
      <point x="172" y="1441" type="line"/>
      <point x="144" y="1489"/>
      <point x="103" y="1494"/>
      <point x="52" y="1494" type="curve"/>
      <point x="52" y="1441" type="line"/>
      <point x="52" y="1436"/>
      <point x="136" y="1268"/>
      <point x="172" y="1199" type="curve"/>
      <point x="245" y="1061"/>
      <point x="327" y="924"/>
      <point x="414" y="795" type="curve"/>
      <point x="414" y="775" type="line"/>
    </contour>
  </outline>
</glyph>
<glyph name="Z" format="1">
  <advance width="1285"/>
  <unicode hex="005A"/>
  <outline>
    <contour>
      <point x="136" y="1408" type="line"/>
      <point x="1086" y="1408" type="line"/>
      <point x="44" y="83" type="line"/>
      <point x="44" y="0" type="line"/>
      <point x="1239" y="0" type="line"/>
      <point x="1239" y="83" type="line"/>
      <point x="182" y="83" type="line"/>
      <point x="1239" y="1433" type="line"/>
      <point x="1239" y="1492" type="line"/>
      <point x="136" y="1492" type="line"/>
    </contour>
  </outline>
</glyph>
<glyph name="bracketleft" format="1">
  <advance width="613"/>
  <unicode hex="005B"/>
  <outline>
    <contour>
      <point x="604" y="0" type="line"/>
      <point x="604" y="92" type="line"/>
      <point x="275" y="92" type="line"/>
      <point x="275" y="1402" type="line"/>
      <point x="604" y="1402" type="line"/>
      <point x="604" y="1492" type="line"/>
      <point x="163" y="1492" type="line"/>
      <point x="163" y="0" type="line"/>
    </contour>
  </outline>
</glyph>
<glyph name="backslash" format="1">
  <advance width="544"/>
  <unicode hex="005C"/>
  <outline>
    <contour>
      <point x="527" y="0" type="line"/>
      <point x="416" y="0" type="line"/>
      <point x="16" y="1492" type="line"/>
      <point x="128" y="1492" type="line"/>
    </contour>
  </outline>
</glyph>
<glyph name="bracketright" format="1">
  <advance width="612"/>
  <unicode hex="005D"/>
  <outline>
    <contour>
      <point x="450" y="0" type="line"/>
      <point x="450" y="1492" type="line"/>
      <point x="10" y="1492" type="line"/>
      <point x="10" y="1402" type="line"/>
      <point x="339" y="1402" type="line"/>
      <point x="339" y="92" type="line"/>
      <point x="10" y="92" type="line"/>
      <point x="10" y="0" type="line"/>
    </contour>
  </outline>
</glyph>
<glyph name="grave" format="1">
  <advance width="381"/>
  <unicode hex="0060"/>
  <outline>
    <contour>
      <point x="324" y="1162" type="line"/>
      <point x="159" y="1470" type="line"/>
      <point x="10" y="1470" type="line"/>
      <point x="278" y="1128" type="line"/>
    </contour>
  </outline>
</glyph>
<glyph name="a" format="1">
  <advance width="1075"/>
  <unicode hex="0061"/>
  <outline>
    <contour>
      <point x="221" y="860" type="line"/>
      <point x="320" y="918"/>
      <point x="391" y="963"/>
      <point x="564" y="963" type="curve" smooth="yes"/>
      <point x="708" y="963"/>
      <point x="811" y="880"/>
      <point x="811" y="707" type="curve" smooth="yes"/>
      <point x="811" y="563" type="line"/>
      <point x="481" y="563"/>
      <point x="109" y="498"/>
      <point x="109" y="232" type="curve" smooth="yes"/>
      <point x="109" y="54"/>
      <point x="263" y="-25"/>
      <point x="420" y="-25" type="curve" smooth="yes"/>
      <point x="568" y="-25"/>
      <point x="694" y="22"/>
      <point x="813" y="114" type="curve"/>
      <point x="819" y="75"/>
      <point x="824" y="36"/>
      <point x="827" y="-4" type="curve"/>
      <point x="862" y="-2"/>
      <point x="895" y="0"/>
      <point x="929" y="0" type="curve"/>
      <point x="926" y="60"/>
      <point x="922" y="126"/>
      <point x="922" y="188" type="curve" smooth="yes"/>
      <point x="922" y="717" type="line" smooth="yes"/>
      <point x="922" y="931"/>
      <point x="782" y="1049"/>
      <point x="561" y="1049" type="curve" smooth="yes"/>
      <point x="402" y="1049"/>
      <point x="289" y="1010"/>
      <point x="172" y="935" type="curve"/>
    </contour>
    <contour>
      <point x="811" y="479" type="curve"/>
      <point x="811" y="202" type="line"/>
      <point x="705" y="116"/>
      <point x="574" y="61"/>
      <point x="434" y="61" type="curve" smooth="yes"/>
      <point x="316" y="61"/>
      <point x="219" y="117"/>
      <point x="219" y="238" type="curve" smooth="yes"/>
      <point x="219" y="443"/>
      <point x="572" y="477"/>
    </contour>
  </outline>
</glyph>
<glyph name="b" format="1">
  <advance width="1108"/>
  <unicode hex="0062"/>
  <outline>
    <contour>
      <point x="263" y="161" type="line"/>
      <point x="341" y="37"/>
      <point x="439" y="-25"/>
      <point x="583" y="-25" type="curve" smooth="yes"/>
      <point x="842" y="-25"/>
      <point x="988" y="210"/>
      <point x="988" y="500" type="curve" smooth="yes"/>
      <point x="988" y="824"/>
      <point x="856" y="1049"/>
      <point x="594" y="1049" type="curve" smooth="yes"/>
      <point x="444" y="1049"/>
      <point x="337" y="971"/>
      <point x="273" y="865" type="curve"/>
      <point x="273" y="1492" type="line"/>
      <point x="163" y="1492" type="line"/>
      <point x="163" y="2" type="line"/>
      <point x="254" y="2" type="line"/>
    </contour>
    <contour>
      <point x="576" y="60" type="curve" smooth="yes"/>
      <point x="453" y="60"/>
      <point x="273" y="132"/>
      <point x="273" y="486" type="curve" smooth="yes"/>
      <point x="273" y="518" type="line" smooth="yes"/>
      <point x="273" y="897"/>
      <point x="459" y="963"/>
      <point x="594" y="963" type="curve"/>
      <point x="782" y="959"/>
      <point x="875" y="776"/>
      <point x="875" y="497" type="curve" smooth="yes"/>
      <point x="875" y="297"/>
      <point x="793" y="60"/>
    </contour>
  </outline>
</glyph>
<glyph name="c" format="1">
  <advance width="1028"/>
  <unicode hex="0063"/>
  <outline>
    <contour>
      <point x="830" y="305" type="line"/>
      <point x="786" y="134"/>
      <point x="694" y="61"/>
      <point x="549" y="61" type="curve" smooth="yes"/>
      <point x="329" y="61"/>
      <point x="230" y="233"/>
      <point x="230" y="513" type="curve" smooth="yes"/>
      <point x="230" y="791"/>
      <point x="327" y="963"/>
      <point x="548" y="963" type="curve" smooth="yes"/>
      <point x="684" y="963"/>
      <point x="777" y="896"/>
      <point x="824" y="726" type="curve"/>
      <point x="916" y="751" type="line"/>
      <point x="850" y="998"/>
      <point x="686" y="1049"/>
      <point x="552" y="1049" type="curve" smooth="yes"/>
      <point x="257" y="1049"/>
      <point x="119" y="822"/>
      <point x="119" y="513" type="curve" smooth="yes"/>
      <point x="119" y="203"/>
      <point x="257" y="-25"/>
      <point x="552" y="-25" type="curve" smooth="yes"/>
      <point x="693" y="-25"/>
      <point x="870" y="56"/>
      <point x="920" y="283" type="curve"/>
    </contour>
  </outline>
</glyph>
<glyph name="d" format="1">
  <advance width="1081"/>
  <unicode hex="0064"/>
  <outline>
    <contour>
      <point x="831" y="2" type="line"/>
      <point x="922" y="2" type="line"/>
      <point x="922" y="1492" type="line"/>
      <point x="812" y="1492" type="line"/>
      <point x="812" y="865" type="line"/>
      <point x="748" y="971"/>
      <point x="641" y="1049"/>
      <point x="491" y="1049" type="curve" smooth="yes"/>
      <point x="229" y="1049"/>
      <point x="97" y="824"/>
      <point x="97" y="500" type="curve" smooth="yes"/>
      <point x="97" y="210"/>
      <point x="243" y="-25"/>
      <point x="502" y="-25" type="curve" smooth="yes"/>
      <point x="646" y="-25"/>
      <point x="744" y="37"/>
      <point x="822" y="161" type="curve"/>
    </contour>
    <contour>
      <point x="509" y="60" type="curve" smooth="yes"/>
      <point x="292" y="60"/>
      <point x="210" y="297"/>
      <point x="210" y="497" type="curve" smooth="yes"/>
      <point x="210" y="776"/>
      <point x="303" y="959"/>
      <point x="491" y="963" type="curve"/>
      <point x="626" y="963"/>
      <point x="812" y="897"/>
      <point x="812" y="518" type="curve" smooth="yes"/>
      <point x="812" y="486" type="line" smooth="yes"/>
      <point x="812" y="132"/>
      <point x="632" y="60"/>
    </contour>
  </outline>
</glyph>
<glyph name="e" format="1">
  <advance width="1045"/>
  <unicode hex="0065"/>
  <outline>
    <contour>
      <point x="545" y="965" type="curve" smooth="yes"/>
      <point x="752" y="965"/>
      <point x="832" y="812"/>
      <point x="837" y="590" type="curve"/>
      <point x="231" y="590" type="line"/>
      <point x="243" y="804"/>
      <point x="346" y="965"/>
    </contour>
    <contour>
      <point x="835" y="324" type="line"/>
      <point x="805" y="187"/>
      <point x="726" y="61"/>
      <point x="554" y="61" type="curve" smooth="yes"/>
      <point x="296" y="61"/>
      <point x="230" y="282"/>
      <point x="230" y="513" type="curve"/>
      <point x="935" y="513" type="line"/>
      <point x="937" y="534"/>
      <point x="938" y="568"/>
      <point x="938" y="574" type="curve" smooth="yes"/>
      <point x="938" y="836"/>
      <point x="816" y="1049"/>
      <point x="542" y="1049" type="curve" smooth="yes"/>
      <point x="264" y="1049"/>
      <point x="119" y="822"/>
      <point x="119" y="518" type="curve" smooth="yes"/>
      <point x="119" y="239"/>
      <point x="234" y="-25"/>
      <point x="559" y="-25" type="curve"/>
      <point x="717" y="-22"/>
      <point x="874" y="79"/>
      <point x="921" y="289" type="curve"/>
    </contour>
  </outline>
</glyph>
<glyph name="f" format="1">
  <advance width="568"/>
  <unicode hex="0066"/>
  <outline>
    <contour>
      <point x="312" y="1297" type="line" smooth="yes"/>
      <point x="312" y="1373"/>
      <point x="345" y="1402"/>
      <point x="389" y="1402" type="curve" smooth="yes"/>
      <point x="420" y="1402"/>
      <point x="460" y="1389"/>
      <point x="499" y="1363" type="curve"/>
      <point x="538" y="1439" type="line"/>
      <point x="491" y="1474"/>
      <point x="432" y="1492"/>
      <point x="377" y="1492" type="curve" smooth="yes"/>
      <point x="284" y="1492"/>
      <point x="203" y="1436"/>
      <point x="203" y="1308" type="curve" smooth="yes"/>
      <point x="203" y="1023" type="line"/>
      <point x="25" y="1023" type="line"/>
      <point x="25" y="937" type="line"/>
      <point x="203" y="937" type="line"/>
      <point x="203" y="0" type="line"/>
      <point x="312" y="0" type="line"/>
      <point x="312" y="937" type="line"/>
      <point x="491" y="937" type="line"/>
      <point x="491" y="1023" type="line"/>
      <point x="312" y="1023" type="line"/>
    </contour>
  </outline>
</glyph>
<glyph name="g" format="1">
  <advance width="1115"/>
  <unicode hex="0067"/>
  <outline>
    <contour>
      <point x="518" y="963" type="curve" smooth="yes"/>
      <point x="655" y="963"/>
      <point x="856" y="921"/>
      <point x="856" y="540" type="curve" smooth="yes"/>
      <point x="856" y="506" type="line" smooth="yes"/>
      <point x="856" y="130"/>
      <point x="660" y="61"/>
      <point x="518" y="61" type="curve" smooth="yes"/>
      <point x="337" y="61"/>
      <point x="233" y="248"/>
      <point x="233" y="527" type="curve" smooth="yes"/>
      <point x="233" y="765"/>
      <point x="337" y="963"/>
    </contour>
    <contour>
      <point x="151" y="-195" type="line"/>
      <point x="218" y="-372"/>
      <point x="381" y="-438"/>
      <point x="518" y="-438" type="curve" smooth="yes"/>
      <point x="825" y="-438"/>
      <point x="967" y="-243"/>
      <point x="967" y="16" type="curve" smooth="yes"/>
      <point x="967" y="1023" type="line"/>
      <point x="875" y="1023" type="line"/>
      <point x="866" y="864" type="line"/>
      <point x="785" y="986"/>
      <point x="669" y="1049"/>
      <point x="518" y="1049" type="curve" smooth="yes"/>
      <point x="255" y="1049"/>
      <point x="119" y="820"/>
      <point x="119" y="523" type="curve" smooth="yes"/>
      <point x="119" y="202"/>
      <point x="255" y="-25"/>
      <point x="518" y="-25" type="curve" smooth="yes"/>
      <point x="678" y="-25"/>
      <point x="790" y="53"/>
      <point x="856" y="159" type="curve"/>
      <point x="856" y="16" type="line" smooth="yes"/>
      <point x="856" y="-213"/>
      <point x="754" y="-351"/>
      <point x="522" y="-351" type="curve" smooth="yes"/>
      <point x="381" y="-351"/>
      <point x="291" y="-294"/>
      <point x="239" y="-165" type="curve"/>
    </contour>
  </outline>
</glyph>
<glyph name="h" format="1">
  <advance width="1136"/>
  <unicode hex="0068"/>
  <outline>
    <contour>
      <point x="163" y="1490" type="line"/>
      <point x="163" y="0" type="line"/>
      <point x="273" y="0" type="line"/>
      <point x="273" y="602" type="line" smooth="yes"/>
      <point x="273" y="692"/>
      <point x="335" y="963"/>
      <point x="625" y="963" type="curve" smooth="yes"/>
      <point x="820" y="963"/>
      <point x="878" y="822"/>
      <point x="878" y="602" type="curve" smooth="yes"/>
      <point x="878" y="0" type="line"/>
      <point x="988" y="0" type="line"/>
      <point x="988" y="590" type="line" smooth="yes"/>
      <point x="988" y="768"/>
      <point x="955" y="1049"/>
      <point x="634" y="1049" type="curve" smooth="yes"/>
      <point x="499" y="1049"/>
      <point x="361" y="1008"/>
      <point x="273" y="852" type="curve"/>
      <point x="273" y="1490" type="line"/>
    </contour>
  </outline>
</glyph>
<glyph name="i" format="1">
  <advance width="376"/>
  <unicode hex="0069"/>
  <outline>
    <contour>
      <point x="142" y="1023" type="line"/>
      <point x="142" y="0" type="line"/>
      <point x="251" y="0" type="line"/>
      <point x="251" y="1023" type="line"/>
    </contour>
    <contour>
      <point x="142" y="1262" type="line"/>
      <point x="251" y="1262" type="line"/>
      <point x="251" y="1427" type="line"/>
      <point x="142" y="1427" type="line"/>
    </contour>
  </outline>
</glyph>
<glyph name="j" format="1">
  <advance width="479"/>
  <unicode hex="006A"/>
  <outline>
    <contour>
      <point x="241" y="-116" type="line" smooth="yes"/>
      <point x="241" y="-195"/>
      <point x="204" y="-219"/>
      <point x="157" y="-219" type="curve" smooth="yes"/>
      <point x="119" y="-219"/>
      <point x="75" y="-204"/>
      <point x="37" y="-183" type="curve"/>
      <point x="0" y="-257" type="line"/>
      <point x="52" y="-293"/>
      <point x="111" y="-313"/>
      <point x="168" y="-313" type="curve" smooth="yes"/>
      <point x="266" y="-313"/>
      <point x="351" y="-254"/>
      <point x="351" y="-127" type="curve" smooth="yes"/>
      <point x="351" y="1023" type="line"/>
      <point x="241" y="1023" type="line"/>
    </contour>
    <contour>
      <point x="241" y="1262" type="line"/>
      <point x="351" y="1262" type="line"/>
      <point x="351" y="1427" type="line"/>
      <point x="241" y="1427" type="line"/>
    </contour>
  </outline>
</glyph>
<glyph name="k" format="1">
  <advance width="1042"/>
  <unicode hex="006B"/>
  <outline>
    <contour>
      <point x="273" y="0" type="line"/>
      <point x="273" y="364" type="line"/>
      <point x="516" y="595" type="line"/>
      <point x="906" y="-2" type="line"/>
      <point x="1031" y="-2" type="line"/>
      <point x="588" y="664" type="line"/>
      <point x="967" y="1025" type="line"/>
      <point x="840" y="1025" type="line"/>
      <point x="273" y="489" type="line"/>
      <point x="273" y="1492" type="line"/>
      <point x="163" y="1492" type="line"/>
      <point x="163" y="0" type="line"/>
    </contour>
  </outline>
</glyph>
<glyph name="m" format="1">
  <advance width="1713"/>
  <unicode hex="006D"/>
  <outline>
    <contour>
      <point x="163" y="1023" type="line"/>
      <point x="163" y="0" type="line"/>
      <point x="273" y="0" type="line"/>
      <point x="273" y="602" type="line" smooth="yes"/>
      <point x="273" y="692"/>
      <point x="327" y="963"/>
      <point x="592" y="963" type="curve" smooth="yes"/>
      <point x="757" y="963"/>
      <point x="807" y="822"/>
      <point x="807" y="602" type="curve" smooth="yes"/>
      <point x="807" y="0" type="line"/>
      <point x="918" y="0" type="line"/>
      <point x="918" y="602" type="line" smooth="yes"/>
      <point x="918" y="692"/>
      <point x="972" y="963"/>
      <point x="1238" y="963" type="curve" smooth="yes"/>
      <point x="1404" y="963"/>
      <point x="1455" y="822"/>
      <point x="1455" y="602" type="curve" smooth="yes"/>
      <point x="1455" y="0" type="line"/>
      <point x="1565" y="0" type="line"/>
      <point x="1565" y="590" type="line" smooth="yes"/>
      <point x="1565" y="768"/>
      <point x="1535" y="1049"/>
      <point x="1246" y="1049" type="curve" smooth="yes"/>
      <point x="1117" y="1049"/>
      <point x="986" y="992"/>
      <point x="901" y="834" type="curve"/>
      <point x="895" y="817" type="line"/>
      <point x="862" y="941"/>
      <point x="783" y="1049"/>
      <point x="600" y="1049" type="curve" smooth="yes"/>
      <point x="479" y="1049"/>
      <point x="353" y="1008"/>
      <point x="273" y="852" type="curve"/>
      <point x="273" y="1023" type="line"/>
    </contour>
  </outline>
</glyph>
<glyph name="n" format="1">
  <advance width="1137"/>
  <unicode hex="006E"/>
  <outline>
    <contour>
      <point x="163" y="1023" type="line"/>
      <point x="163" y="0" type="line"/>
      <point x="273" y="0" type="line"/>
      <point x="273" y="602" type="line" smooth="yes"/>
      <point x="273" y="708"/>
      <point x="335" y="963"/>
      <point x="625" y="963" type="curve" smooth="yes"/>
      <point x="820" y="963"/>
      <point x="878" y="822"/>
      <point x="878" y="602" type="curve" smooth="yes"/>
      <point x="878" y="0" type="line"/>
      <point x="988" y="0" type="line"/>
      <point x="988" y="590" type="line" smooth="yes"/>
      <point x="988" y="768"/>
      <point x="955" y="1049"/>
      <point x="634" y="1049" type="curve" smooth="yes"/>
      <point x="499" y="1049"/>
      <point x="361" y="1008"/>
      <point x="273" y="852" type="curve"/>
      <point x="273" y="1023" type="line"/>
    </contour>
  </outline>
</glyph>
<glyph name="o" format="1">
  <advance width="1080"/>
  <unicode hex="006F"/>
  <outline>
    <contour>
      <point x="541" y="963" type="curve" smooth="yes"/>
      <point x="790" y="963"/>
      <point x="850" y="729"/>
      <point x="850" y="513" type="curve" smooth="yes"/>
      <point x="850" y="293"/>
      <point x="790" y="61"/>
      <point x="541" y="61" type="curve" smooth="yes"/>
      <point x="290" y="61"/>
      <point x="231" y="293"/>
      <point x="231" y="513" type="curve" smooth="yes"/>
      <point x="231" y="729"/>
      <point x="290" y="963"/>
    </contour>
    <contour>
      <point x="541" y="-25" type="curve" smooth="yes"/>
      <point x="790" y="-25"/>
      <point x="959" y="153"/>
      <point x="959" y="513" type="curve" smooth="yes"/>
      <point x="959" y="889"/>
      <point x="773" y="1049"/>
      <point x="541" y="1049" type="curve" smooth="yes"/>
      <point x="307" y="1049"/>
      <point x="120" y="889"/>
      <point x="120" y="513" type="curve" smooth="yes"/>
      <point x="120" y="153"/>
      <point x="290" y="-25"/>
    </contour>
  </outline>
</glyph>
<glyph name="p" format="1">
  <advance width="1084"/>
  <unicode hex="0070"/>
  <outline>
    <contour>
      <point x="254" y="1023" type="line"/>
      <point x="163" y="1023" type="line"/>
      <point x="163" y="-391" type="line"/>
      <point x="273" y="-378" type="line"/>
      <point x="273" y="176" type="line"/>
      <point x="327" y="46"/>
      <point x="442" y="-25"/>
      <point x="582" y="-25" type="curve" smooth="yes"/>
      <point x="833" y="-25"/>
      <point x="965" y="202"/>
      <point x="965" y="523" type="curve" smooth="yes"/>
      <point x="965" y="820"/>
      <point x="833" y="1049"/>
      <point x="582" y="1049" type="curve" smooth="yes"/>
      <point x="426" y="1049"/>
      <point x="323" y="972"/>
      <point x="263" y="840" type="curve"/>
    </contour>
    <contour>
      <point x="582" y="963" type="curve" smooth="yes"/>
      <point x="759" y="962"/>
      <point x="852" y="765"/>
      <point x="852" y="527" type="curve" smooth="yes"/>
      <point x="852" y="248"/>
      <point x="756" y="61"/>
      <point x="582" y="61" type="curve" smooth="yes"/>
      <point x="454" y="61"/>
      <point x="273" y="130"/>
      <point x="273" y="506" type="curve" smooth="yes"/>
      <point x="273" y="540" type="line" smooth="yes"/>
      <point x="273" y="924"/>
      <point x="464" y="963"/>
    </contour>
  </outline>
</glyph>
<glyph name="q" format="1">
  <advance width="1081"/>
  <unicode hex="0071"/>
  <outline>
    <contour>
      <point x="502" y="963" type="curve"/>
      <point x="625" y="963"/>
      <point x="811" y="921"/>
      <point x="811" y="540" type="curve" smooth="yes"/>
      <point x="811" y="506" type="line" smooth="yes"/>
      <point x="811" y="130"/>
      <point x="630" y="61"/>
      <point x="502" y="61" type="curve" smooth="yes"/>
      <point x="329" y="61"/>
      <point x="233" y="248"/>
      <point x="233" y="527" type="curve" smooth="yes"/>
      <point x="233" y="765"/>
      <point x="329" y="963"/>
    </contour>
    <contour>
      <point x="822" y="864" type="line"/>
      <point x="747" y="986"/>
      <point x="638" y="1049"/>
      <point x="502" y="1049" type="curve" smooth="yes"/>
      <point x="251" y="1049"/>
      <point x="119" y="820"/>
      <point x="119" y="523" type="curve" smooth="yes"/>
      <point x="119" y="202"/>
      <point x="251" y="-25"/>
      <point x="502" y="-25" type="curve" smooth="yes"/>
      <point x="644" y="-25"/>
      <point x="752" y="53"/>
      <point x="811" y="159" type="curve"/>
      <point x="811" y="-378" type="line"/>
      <point x="922" y="-391" type="line"/>
      <point x="922" y="1023" type="line"/>
      <point x="830" y="1023" type="line"/>
    </contour>
  </outline>
</glyph>
<glyph name="r" format="1">
  <advance width="830"/>
  <unicode hex="0072"/>
  <outline>
    <contour>
      <point x="568" y="963"/>
      <point x="571" y="1049"/>
      <point x="566" y="1049" type="curve" smooth="yes"/>
      <point x="459.0" y="1049.0"/>
      <point x="346" y="1008"/>
      <point x="273" y="852" type="curve"/>
      <point x="273" y="1023" type="line"/>
      <point x="163" y="1023" type="line"/>
      <point x="163" y="0" type="line"/>
      <point x="273" y="0" type="line"/>
      <point x="273" y="602" type="line" smooth="yes"/>
      <point x="273" y="708"/>
      <point x="321.0" y="963.0"/>
      <point x="559" y="963" type="curve" smooth="yes"/>
    </contour>
  </outline>
</glyph>
<glyph name="s" format="1">
  <advance width="1069"/>
  <unicode hex="0073"/>
  <outline>
    <contour>
      <point x="520" y="-25" type="curve" smooth="yes"/>
      <point x="774" y="-25"/>
      <point x="937" y="73"/>
      <point x="951" y="255" type="curve" smooth="yes"/>
      <point x="965" y="418"/>
      <point x="880" y="515"/>
      <point x="714" y="549" type="curve" smooth="yes"/>
      <point x="408" y="608" type="line" smooth="yes"/>
      <point x="309" y="627"/>
      <point x="254" y="692"/>
      <point x="254" y="780" type="curve" smooth="yes"/>
      <point x="254" y="914"/>
      <point x="372" y="963"/>
      <point x="550" y="963" type="curve" smooth="yes"/>
      <point x="695" y="963"/>
      <point x="791" y="901"/>
      <point x="855" y="785" type="curve"/>
      <point x="933" y="840" type="line"/>
      <point x="845" y="986"/>
      <point x="724" y="1049"/>
      <point x="540" y="1049" type="curve" smooth="yes"/>
      <point x="333" y="1049"/>
      <point x="153" y="971"/>
      <point x="153" y="778" type="curve" smooth="yes"/>
      <point x="153" y="634"/>
      <point x="264" y="549"/>
      <point x="383" y="522" type="curve" smooth="yes"/>
      <point x="692" y="462" type="line" smooth="yes"/>
      <point x="828" y="436"/>
      <point x="860" y="348"/>
      <point x="852" y="255" type="curve" smooth="yes"/>
      <point x="838" y="105"/>
      <point x="679" y="61"/>
      <point x="540" y="61" type="curve" smooth="yes"/>
      <point x="343" y="61"/>
      <point x="234" y="143"/>
      <point x="199" y="331" type="curve"/>
      <point x="103" y="308" type="line"/>
      <point x="128" y="46"/>
      <point x="365" y="-25"/>
    </contour>
  </outline>
</glyph>
<glyph name="t" format="1">
  <advance width="550"/>
  <unicode hex="0074"/>
  <outline>
    <contour>
      <point x="34" y="946" type="line"/>
      <point x="186" y="946" type="line"/>
      <point x="186" y="157" type="line" smooth="yes"/>
      <point x="186" y="28"/>
      <point x="268" y="-27"/>
      <point x="361" y="-27" type="curve" smooth="yes"/>
      <point x="416" y="-27"/>
      <point x="474" y="-8"/>
      <point x="520" y="27" type="curve"/>
      <point x="483" y="101" type="line"/>
      <point x="444" y="77"/>
      <point x="404" y="63"/>
      <point x="372" y="63" type="curve" smooth="yes"/>
      <point x="327" y="63"/>
      <point x="296" y="93"/>
      <point x="296" y="168" type="curve" smooth="yes"/>
      <point x="296" y="946" type="line"/>
      <point x="499" y="946" type="line"/>
      <point x="499" y="1023" type="line"/>
      <point x="296" y="1023" type="line"/>
      <point x="296" y="1425" type="line"/>
      <point x="186" y="1408" type="line"/>
      <point x="186" y="1023" type="line"/>
      <point x="34" y="1023" type="line"/>
    </contour>
  </outline>
</glyph>
<glyph name="u" format="1">
  <advance width="1132"/>
  <unicode hex="0075"/>
  <outline>
    <contour>
      <point x="971" y="0" type="line"/>
      <point x="971" y="1025" type="line"/>
      <point x="862" y="1025" type="line"/>
      <point x="862" y="422" type="line"/>
      <point x="862" y="333"/>
      <point x="800" y="61"/>
      <point x="509" y="61" type="curve" smooth="yes"/>
      <point x="316" y="61"/>
      <point x="264" y="203"/>
      <point x="264" y="422" type="curve"/>
      <point x="264" y="1025" type="line"/>
      <point x="148" y="1025" type="line"/>
      <point x="148" y="434" type="line"/>
      <point x="148" y="254"/>
      <point x="181" y="-25"/>
      <point x="500" y="-25" type="curve" smooth="yes"/>
      <point x="637" y="-25"/>
      <point x="775" y="16"/>
      <point x="862" y="173" type="curve"/>
      <point x="862" y="0" type="line"/>
    </contour>
  </outline>
</glyph>
<glyph name="v" format="1">
  <advance width="1045"/>
  <unicode hex="0076"/>
  <outline>
    <contour>
      <point x="473" y="2" type="line"/>
      <point x="563" y="0" type="line"/>
      <point x="988" y="1023" type="line"/>
      <point x="880" y="1023" type="line"/>
      <point x="520" y="130" type="line"/>
      <point x="173" y="1023" type="line"/>
      <point x="61" y="1023" type="line"/>
    </contour>
  </outline>
</glyph>
<glyph name="w" format="1">
  <advance width="1620"/>
  <unicode hex="0077"/>
  <outline>
    <contour>
      <point x="1068" y="2" type="line"/>
      <point x="1165" y="0" type="line"/>
      <point x="1521" y="1023" type="line"/>
      <point x="1407" y="1023" type="line"/>
      <point x="1119" y="143" type="line"/>
      <point x="841" y="1023" type="line"/>
      <point x="787" y="1023" type="line"/>
      <point x="492" y="143" type="line"/>
      <point x="223" y="1023" type="line"/>
      <point x="103" y="1023" type="line"/>
      <point x="442" y="2" type="line"/>
      <point x="538" y="0" type="line"/>
      <point x="636" y="273"/>
      <point x="715" y="546"/>
      <point x="813" y="819" type="curve"/>
    </contour>
  </outline>
</glyph>
<glyph name="x" format="1">
  <advance width="1128"/>
  <unicode hex="0078"/>
  <outline>
    <contour>
      <point x="995" y="1023" type="line"/>
      <point x="875" y="1023" type="line"/>
      <point x="561" y="594" type="line"/>
      <point x="245" y="1023" type="line"/>
      <point x="128" y="1023" type="line"/>
      <point x="503" y="515" type="line"/>
      <point x="127" y="0" type="line"/>
      <point x="247" y="0" type="line"/>
      <point x="564" y="433" type="line"/>
      <point x="885" y="0" type="line"/>
      <point x="1001" y="0" type="line"/>
      <point x="622" y="513" type="line"/>
    </contour>
  </outline>
</glyph>
<glyph name="y" format="1">
  <advance width="1036"/>
  <unicode hex="0079"/>
  <outline>
    <contour>
      <point x="111" y="-278" type="line"/>
      <point x="166" y="-298"/>
      <point x="215" y="-306"/>
      <point x="257" y="-306" type="curve" smooth="yes"/>
      <point x="428" y="-306"/>
      <point x="517" y="-173"/>
      <point x="586" y="12" type="curve" smooth="yes"/>
      <point x="1004" y="1023" type="line"/>
      <point x="894" y="1023" type="line"/>
      <point x="557" y="188" type="line"/>
      <point x="223" y="1023" type="line"/>
      <point x="111" y="1023" type="line"/>
      <point x="499" y="73" type="line"/>
      <point x="479" y="16" type="line" smooth="yes"/>
      <point x="424" y="-136"/>
      <point x="365" y="-218"/>
      <point x="255" y="-218" type="curve" smooth="yes"/>
      <point x="224" y="-218"/>
      <point x="188" y="-211"/>
      <point x="146" y="-197" type="curve"/>
    </contour>
  </outline>
</glyph>
<glyph name="z" format="1">
  <advance width="940"/>
  <unicode hex="007A"/>
  <outline>
    <contour>
      <point x="127" y="940" type="line"/>
      <point x="734" y="940" type="line"/>
      <point x="69" y="83" type="line"/>
      <point x="69" y="0" type="line"/>
      <point x="855" y="0" type="line"/>
      <point x="855" y="83" type="line"/>
      <point x="199" y="83" type="line"/>
      <point x="864" y="940" type="line"/>
      <point x="864" y="1023" type="line"/>
      <point x="127" y="1023" type="line"/>
    </contour>
  </outline>
</glyph>
<glyph name="dieresis" format="1">
  <advance width="922"/>
  <unicode hex="00A8"/>
  <outline>
    <contour>
      <point x="350" y="1200" type="line"/>
      <point x="350" y="1350" type="line"/>
      <point x="200" y="1350" type="line"/>
      <point x="200" y="1200" type="line"/>
    </contour>
    <contour>
      <point x="750" y="1200" type="line"/>
      <point x="750" y="1350" type="line"/>
      <point x="600" y="1350" type="line"/>
      <point x="600" y="1200" type="line"/>
    </contour>
  </outline>
</glyph>
<glyph name="acute" format="1">
  <advance width="463"/>
  <unicode hex="00B4"/>
  <outline>
    <contour>
      <point x="190" y="1162" type="line"/>
      <point x="430" y="1492" type="line"/>
      <point x="281" y="1492" type="line"/>
      <point x="117" y="1162" type="line"/>
    </contour>
  </outline>
</glyph>
<glyph name="cedilla" format="1">
  <advance width="393"/>
  <unicode hex="00B8"/>
  <outline>
    <contour>
      <point x="165" y="-140" type="line"/>
      <point x="213" y="-176" type="line"/>
      <point x="213" y="-262"/>
      <point x="193" y="-266"/>
      <point x="163" y="-273" type="curve"/>
      <point x="163" y="-314" type="line"/>
      <point x="275" y="-314"/>
      <point x="275" y="-202"/>
      <point x="275" y="-178" type="curve" smooth="yes"/>
      <point x="275" y="0" type="line"/>
      <point x="165" y="0" type="line"/>
    </contour>
  </outline>
</glyph>
<glyph name="AE" format="1">
  <advance width="2276"/>
  <unicode hex="00C6"/>
  <outline>
    <contour>
      <point x="60" y="0" type="line"/>
      <point x="188" y="0" type="line"/>
      <point x="458" y="413" type="line"/>
      <point x="1103" y="413" type="line"/>
      <point x="1103" y="0" type="line"/>
      <point x="2225" y="0" type="line"/>
      <point x="2225" y="92" type="line"/>
      <point x="1213" y="92" type="line"/>
      <point x="1213" y="756" type="line"/>
      <point x="2031" y="756" type="line"/>
      <point x="2031" y="847" type="line"/>
      <point x="1213" y="847" type="line"/>
      <point x="1213" y="1402" type="line"/>
      <point x="2214" y="1402" type="line"/>
      <point x="2214" y="1492" type="line"/>
      <point x="1036" y="1492" type="line"/>
    </contour>
    <contour>
      <point x="1103" y="1416" type="line"/>
      <point x="1103" y="499" type="line"/>
      <point x="511" y="499" type="line"/>
    </contour>
  </outline>
</glyph>
<glyph name="ae" format="1">
  <advance width="1692"/>
  <unicode hex="00E6"/>
  <outline>
    <contour>
      <point x="1376" y="-22"/>
      <point x="1528" y="79"/>
      <point x="1575" y="289" type="curve"/>
      <point x="1489" y="324" type="line"/>
      <point x="1459" y="187"/>
      <point x="1385" y="61"/>
      <point x="1213" y="61" type="curve" smooth="yes"/>
      <point x="955" y="61"/>
      <point x="908.0" y="270.0"/>
      <point x="908.0" y="501.0" type="curve"/>
      <point x="1582" y="520" type="line"/>
      <point x="1584" y="541"/>
      <point x="1585" y="575"/>
      <point x="1585" y="581" type="curve" smooth="yes"/>
      <point x="1585" y="843"/>
      <point x="1482" y="1049"/>
      <point x="1208" y="1049" type="curve" smooth="yes"/>
      <point x="1053" y="1049"/>
      <point x="941.0" y="967.0"/>
      <point x="872.0" y="830.0" type="curve"/>
      <point x="818.0" y="978.0"/>
      <point x="711.0" y="1049.0"/>
      <point x="547.0" y="1049.0" type="curve" smooth="yes"/>
      <point x="388.0" y="1049.0"/>
      <point x="289" y="1010"/>
      <point x="172" y="935" type="curve"/>
      <point x="221" y="856" type="line"/>
      <point x="320" y="914"/>
      <point x="377.0" y="963.0"/>
      <point x="550.0" y="963.0" type="curve" smooth="yes"/>
      <point x="694.0" y="963.0"/>
      <point x="797.0" y="880.0"/>
      <point x="797.0" y="707.0" type="curve" smooth="yes"/>
      <point x="797.0" y="579.0" type="line"/>
      <point x="636.0" y="574.0" type="line" smooth="yes"/>
      <point x="327.0" y="564.0"/>
      <point x="138" y="497"/>
      <point x="138" y="264" type="curve" smooth="yes"/>
      <point x="138" y="76"/>
      <point x="299" y="-27"/>
      <point x="482" y="-27" type="curve" smooth="yes"/>
      <point x="697" y="-27"/>
      <point x="844" y="79"/>
      <point x="876" y="197" type="curve"/>
      <point x="939" y="44"/>
      <point x="1066" y="-25"/>
      <point x="1218" y="-25" type="curve"/>
    </contour>
    <contour>
      <point x="921.0" y="792.0"/>
      <point x="1012" y="965"/>
      <point x="1211" y="965" type="curve" smooth="yes"/>
      <point x="1418" y="965"/>
      <point x="1479" y="819"/>
      <point x="1484" y="597" type="curve"/>
      <point x="909.0" y="578.0" type="line"/>
    </contour>
    <contour>
      <point x="817.0" y="131.0"/>
      <point x="628" y="60"/>
      <point x="481" y="60" type="curve" smooth="yes"/>
      <point x="346" y="60"/>
      <point x="248" y="134"/>
      <point x="248" y="257" type="curve" smooth="yes"/>
      <point x="248" y="435"/>
      <point x="408.0" y="483.0"/>
      <point x="637.0" y="490.0" type="curve" smooth="yes"/>
      <point x="797.0" y="495.0" type="line"/>
      <point x="822.0" y="336.0" type="line"/>
    </contour>
  </outline>
</glyph>
<glyph name="oslash" format="1">
  <advance width="1321"/>
  <unicode hex="00F8"/>
  <outline>
    <contour>
      <point x="163" y="-117" type="line"/>
      <point x="247" y="-156" type="line"/>
      <point x="947" y="1160" type="line"/>
      <point x="863" y="1199" type="line"/>
    </contour>
    <component base="o"/>
  </outline>
</glyph>
<glyph name="OE" format="1">
  <advance width="2309"/>
  <unicode hex="0152"/>
  <outline>
    <contour>
      <point x="751" y="-25" type="curve" smooth="yes"/>
      <point x="972" y="-25"/>
      <point x="1142" y="44"/>
      <point x="1239" y="248" type="curve"/>
      <point x="1239" y="0" type="line"/>
      <point x="2259" y="0" type="line"/>
      <point x="2259" y="92" type="line"/>
      <point x="1351" y="92" type="line"/>
      <point x="1351" y="756" type="line"/>
      <point x="2136" y="756" type="line"/>
      <point x="2136" y="847" type="line"/>
      <point x="1351" y="847" type="line"/>
      <point x="1351" y="1402" type="line"/>
      <point x="2247" y="1402" type="line"/>
      <point x="2247" y="1492" type="line"/>
      <point x="1239" y="1492" type="line"/>
      <point x="1239" y="1242" type="line"/>
      <point x="1142" y="1446"/>
      <point x="972" y="1521"/>
      <point x="751" y="1521" type="curve" smooth="yes"/>
      <point x="377" y="1521"/>
      <point x="142" y="1332"/>
      <point x="142" y="749" type="curve" smooth="yes"/>
      <point x="142" y="153"/>
      <point x="377" y="-25"/>
    </contour>
    <contour>
      <point x="751" y="71" type="curve" smooth="yes"/>
      <point x="381" y="71"/>
      <point x="263" y="280"/>
      <point x="263" y="749" type="curve" smooth="yes"/>
      <point x="263" y="1178"/>
      <point x="361" y="1425"/>
      <point x="751" y="1425" type="curve" smooth="yes"/>
      <point x="1140" y="1425"/>
      <point x="1238" y="1178"/>
      <point x="1238" y="749" type="curve" smooth="yes"/>
      <point x="1238" y="280"/>
      <point x="1119" y="71"/>
    </contour>
  </outline>
</glyph>
<glyph name="oe" format="1">
  <advance width="1817"/>
  <unicode hex="0153"/>
  <outline>
    <contour>
      <point x="557" y="-25" type="curve" smooth="yes"/>
      <point x="724" y="-25"/>
      <point x="855" y="55"/>
      <point x="924" y="215" type="curve"/>
      <point x="986" y="73"/>
      <point x="1106" y="-25"/>
      <point x="1306" y="-25" type="curve"/>
      <point x="1470" y="-22"/>
      <point x="1633" y="88"/>
      <point x="1673" y="316" type="curve"/>
      <point x="1586" y="338" type="line"/>
      <point x="1558" y="195"/>
      <point x="1479" y="61"/>
      <point x="1301" y="61" type="curve" smooth="yes"/>
      <point x="1044" y="61"/>
      <point x="976" y="282"/>
      <point x="976" y="513" type="curve"/>
      <point x="1682" y="513" type="line"/>
      <point x="1684" y="534"/>
      <point x="1685" y="568"/>
      <point x="1685" y="574" type="curve" smooth="yes"/>
      <point x="1685" y="836"/>
      <point x="1562" y="1049"/>
      <point x="1288" y="1049" type="curve" smooth="yes"/>
      <point x="1111" y="1049"/>
      <point x="988" y="956"/>
      <point x="924" y="809" type="curve"/>
      <point x="852" y="974"/>
      <point x="715" y="1049"/>
      <point x="557" y="1049" type="curve" smooth="yes"/>
      <point x="324" y="1049"/>
      <point x="138" y="889"/>
      <point x="138" y="513" type="curve" smooth="yes"/>
      <point x="138" y="153"/>
      <point x="308" y="-25"/>
    </contour>
    <contour>
      <point x="557" y="963" type="curve" smooth="yes"/>
      <point x="806" y="963"/>
      <point x="866" y="729"/>
      <point x="866" y="513" type="curve" smooth="yes"/>
      <point x="866" y="293"/>
      <point x="806" y="61"/>
      <point x="557" y="61" type="curve" smooth="yes"/>
      <point x="308" y="61"/>
      <point x="248" y="293"/>
      <point x="248" y="513" type="curve" smooth="yes"/>
      <point x="248" y="729"/>
      <point x="308" y="963"/>
    </contour>
    <contour>
      <point x="1286" y="965" type="curve" smooth="yes"/>
      <point x="1494" y="965"/>
      <point x="1580" y="813"/>
      <point x="1582" y="590" type="curve"/>
      <point x="978" y="590" type="line"/>
      <point x="990" y="804"/>
      <point x="1088" y="965"/>
    </contour>
  </outline>
</glyph>
<glyph name="quoteleft" format="1">
  <advance width="393"/>
  <unicode hex="2018"/>
  <outline>
    <contour>
      <point x="234" y="1497" type="line"/>
      <point x="103" y="1395"/>
      <point x="88" y="1251"/>
      <point x="88" y="1115" type="curve" smooth="yes"/>
      <point x="88" y="1023" type="line"/>
      <point x="259" y="1023" type="line"/>
      <point x="259" y="1197" type="line"/>
      <point x="195" y="1215" type="line"/>
      <point x="195" y="1357"/>
      <point x="255" y="1425"/>
      <point x="273" y="1442" type="curve"/>
    </contour>
  </outline>
</glyph>
<glyph name="quoteright" format="1">
  <advance width="393"/>
  <unicode hex="2019"/>
  <outline>
    <contour>
      <point x="163" y="1016" type="line"/>
      <point x="294" y="1117"/>
      <point x="309" y="1262"/>
      <point x="309" y="1399" type="curve" smooth="yes"/>
      <point x="309" y="1490" type="line"/>
      <point x="138" y="1490" type="line"/>
      <point x="138" y="1316" type="line"/>
      <point x="203" y="1297" type="line"/>
      <point x="203" y="1156"/>
      <point x="142" y="1088"/>
      <point x="126" y="1071" type="curve"/>
    </contour>
  </outline>
</glyph>
<glyph name="quotedblleft" format="1">
  <advance width="717"/>
  <unicode hex="201C"/>
  <outline>
    <contour>
      <point x="275" y="1497" type="line"/>
      <point x="143" y="1395"/>
      <point x="128" y="1251"/>
      <point x="128" y="1115" type="curve" smooth="yes"/>
      <point x="128" y="1023" type="line"/>
      <point x="300" y="1023" type="line"/>
      <point x="300" y="1197" type="line"/>
      <point x="234" y="1215" type="line"/>
      <point x="234" y="1357"/>
      <point x="296" y="1425"/>
      <point x="312" y="1442" type="curve"/>
    </contour>
    <contour>
      <point x="532" y="1497" type="line"/>
      <point x="401" y="1395"/>
      <point x="385" y="1251"/>
      <point x="385" y="1115" type="curve" smooth="yes"/>
      <point x="385" y="1023" type="line"/>
      <point x="557" y="1023" type="line"/>
      <point x="557" y="1197" type="line"/>
      <point x="492" y="1215" type="line"/>
      <point x="492" y="1357"/>
      <point x="554" y="1425"/>
      <point x="570" y="1442" type="curve"/>
    </contour>
  </outline>
</glyph>
<glyph name="quotedblright" format="1">
  <advance width="712"/>
  <unicode hex="201D"/>
  <outline>
    <contour>
      <point x="440" y="1016" type="line"/>
      <point x="570" y="1117"/>
      <point x="586" y="1262"/>
      <point x="586" y="1399" type="curve" smooth="yes"/>
      <point x="586" y="1490" type="line"/>
      <point x="414" y="1490" type="line"/>
      <point x="414" y="1316" type="line"/>
      <point x="479" y="1297" type="line"/>
      <point x="479" y="1156"/>
      <point x="418" y="1088"/>
      <point x="401" y="1071" type="curve"/>
    </contour>
    <contour>
      <point x="184" y="1016" type="line"/>
      <point x="316" y="1117"/>
      <point x="331" y="1262"/>
      <point x="331" y="1399" type="curve" smooth="yes"/>
      <point x="331" y="1490" type="line"/>
      <point x="159" y="1490" type="line"/>
      <point x="159" y="1316" type="line"/>
      <point x="224" y="1297" type="line"/>
      <point x="224" y="1156"/>
      <point x="163" y="1088"/>
      <point x="146" y="1071" type="curve"/>
    </contour>
  </outline>
</glyph>
<glyph name="CR" format="1">
  <advance width="934"/>
  <outline>
    <contour>
      <point x="90" y="885" type="line" smooth="yes"/>
      <point x="90" y="633"/>
      <point x="70" y="297"/>
      <point x="399" y="297" type="curve" smooth="yes"/>
      <point x="532" y="297"/>
      <point x="616" y="340"/>
      <point x="711" y="440" type="curve"/>
      <point x="717" y="440" type="line" smooth="yes"/>
      <point x="725" y="440"/>
      <point x="733" y="436"/>
      <point x="735" y="426" type="curve"/>
      <point x="741" y="412"/>
      <point x="760" y="338"/>
      <point x="762" y="324" type="curve"/>
      <point x="776" y="311"/>
      <point x="784" y="309"/>
      <point x="801" y="309" type="curve" smooth="yes"/>
      <point x="813" y="309"/>
      <point x="821" y="309"/>
      <point x="827" y="324" type="curve"/>
      <point x="834" y="502"/>
      <point x="840" y="672"/>
      <point x="840" y="848" type="curve" smooth="yes"/>
      <point x="840" y="995"/>
      <point x="836" y="1085"/>
      <point x="827" y="1266" type="curve"/>
      <point x="823" y="1284"/>
      <point x="799" y="1280"/>
      <point x="788" y="1280" type="curve" smooth="yes"/>
      <point x="762" y="1280" type="line"/>
      <point x="750" y="813" type="line"/>
      <point x="743" y="604"/>
      <point x="684" y="348"/>
      <point x="428" y="348" type="curve" smooth="yes"/>
      <point x="162" y="348"/>
      <point x="184" y="674"/>
      <point x="180" y="852" type="curve"/>
      <point x="180" y="1253" type="line"/>
      <point x="176" y="1270"/>
      <point x="158" y="1268"/>
      <point x="147" y="1268" type="curve" smooth="yes"/>
      <point x="127" y="1268"/>
      <point x="113" y="1266"/>
      <point x="102" y="1241" type="curve"/>
      <point x="90" y="918" type="line"/>
    </contour>
  </outline>
</glyph>
<glyph name="_10" format="1">
  <advance width="1227"/>
  <outline>
    <contour>
      <point x="190" y="711" type="curve"/>
      <point x="190" y="403"/>
      <point x="309" y="207"/>
      <point x="645" y="207" type="curve"/>
      <point x="813" y="207"/>
      <point x="1034" y="326"/>
      <point x="1034" y="518" type="curve"/>
      <point x="1034" y="553"/>
      <point x="969" y="569"/>
      <point x="942" y="569" type="curve"/>
      <point x="905" y="569"/>
      <point x="879" y="309"/>
      <point x="616" y="309" type="curve"/>
      <point x="401" y="309"/>
      <point x="322" y="461"/>
      <point x="322" y="666" type="curve"/>
      <point x="322" y="682"/>
      <point x="326" y="737"/>
      <point x="348" y="737" type="curve"/>
      <point x="1008" y="737" type="line"/>
      <point x="1034" y="762" type="line"/>
      <point x="1034" y="764"/>
      <point x="1036" y="815"/>
      <point x="1036" y="834" type="curve"/>
      <point x="1036" y="1122"/>
      <point x="918" y="1282"/>
      <point x="612" y="1282" type="curve"/>
      <point x="258" y="1282"/>
      <point x="190" y="1014"/>
    </contour>
    <contour>
      <point x="332" y="895" type="curve"/>
      <point x="332" y="1049"/>
      <point x="420" y="1174"/>
      <point x="582" y="1188" type="curve"/>
      <point x="784" y="1208"/>
      <point x="905" y="1069"/>
      <point x="905" y="877" type="curve"/>
      <point x="905" y="842"/>
      <point x="850" y="840"/>
      <point x="827" y="840" type="curve"/>
      <point x="348" y="840" type="line"/>
      <point x="336" y="852" type="line"/>
      <point x="334" y="856"/>
      <point x="332" y="887"/>
    </contour>
  </outline>
</glyph>
<glyph name="_100" format="1">
  <advance width="881"/>
  <outline>
    <contour>
      <point x="84" y="844" type="curve"/>
      <point x="78" y="801"/>
      <point x="66" y="602"/>
      <point x="63" y="559" type="curve"/>
      <point x="61" y="422"/>
      <point x="57" y="-223"/>
      <point x="57" y="-360" type="curve"/>
      <point x="66" y="-360"/>
      <point x="113" y="-356"/>
      <point x="121" y="-354" type="curve"/>
      <point x="131" y="-352"/>
      <point x="150" y="-340"/>
      <point x="150" y="-336" type="curve"/>
      <point x="150" y="82" type="line"/>
      <point x="256" y="63"/>
      <point x="311" y="-33"/>
      <point x="442" y="-33" type="curve"/>
      <point x="748" y="-33"/>
      <point x="807" y="205"/>
      <point x="807" y="463" type="curve"/>
      <point x="807" y="700"/>
      <point x="721" y="864"/>
      <point x="463" y="864" type="curve"/>
      <point x="340" y="864"/>
      <point x="283" y="834"/>
      <point x="178" y="768" type="curve"/>
      <point x="176" y="795"/>
      <point x="152" y="864"/>
      <point x="113" y="864" type="curve"/>
      <point x="98" y="864"/>
      <point x="90" y="858"/>
    </contour>
    <contour>
      <point x="158" y="434" type="curve"/>
      <point x="158" y="459"/>
      <point x="158" y="571"/>
      <point x="160" y="596" type="curve"/>
      <point x="199" y="745"/>
      <point x="326" y="807"/>
      <point x="475" y="807" type="curve"/>
      <point x="561" y="807"/>
      <point x="692" y="731"/>
      <point x="692" y="635" type="curve"/>
      <point x="692" y="236" type="line"/>
      <point x="692" y="104"/>
      <point x="537" y="25"/>
      <point x="424" y="25" type="curve"/>
      <point x="184" y="25"/>
      <point x="158" y="248"/>
    </contour>
  </outline>
</glyph>
<glyph name="_101" format="1">
  <advance width="895"/>
  <outline>
    <contour>
      <point x="709" y="-354" type="line"/>
      <point x="756" y="-393" type="line"/>
      <point x="793" y="-354" type="line"/>
      <point x="799" y="-350"/>
      <point x="811" y="-203"/>
      <point x="813" y="-145" type="curve"/>
      <point x="813" y="-127"/>
      <point x="815" y="211"/>
      <point x="815" y="340" type="curve"/>
      <point x="815" y="412"/>
      <point x="813" y="752"/>
      <point x="813" y="825" type="curve"/>
      <point x="805" y="844"/>
      <point x="791" y="844"/>
      <point x="774" y="844" type="curve"/>
      <point x="731" y="844"/>
      <point x="737" y="784"/>
      <point x="709" y="784" type="curve"/>
      <point x="631" y="784"/>
      <point x="545" y="864"/>
      <point x="432" y="864" type="curve"/>
      <point x="268" y="864"/>
      <point x="70" y="774"/>
      <point x="70" y="578" type="curve"/>
      <point x="70" y="197" type="line"/>
      <point x="70" y="41"/>
      <point x="276" y="-35"/>
      <point x="393" y="-35" type="curve"/>
      <point x="514" y="-35"/>
      <point x="602" y="39"/>
      <point x="709" y="39" type="curve"/>
    </contour>
    <contour>
      <point x="164" y="426" type="curve"/>
      <point x="164" y="621"/>
      <point x="233" y="807"/>
      <point x="457" y="807" type="curve"/>
      <point x="551" y="807"/>
      <point x="715" y="729"/>
      <point x="717" y="614" type="curve"/>
      <point x="719" y="592"/>
      <point x="719" y="485"/>
      <point x="719" y="463" type="curve"/>
      <point x="719" y="250"/>
      <point x="709" y="43"/>
      <point x="446" y="43" type="curve"/>
      <point x="203" y="43"/>
      <point x="164" y="199"/>
    </contour>
  </outline>
</glyph>
<glyph name="_102" format="1">
  <advance width="684"/>
  <outline>
    <contour>
      <point x="111" y="858" type="curve"/>
      <point x="80" y="858"/>
      <point x="76" y="846"/>
      <point x="76" y="799" type="curve"/>
      <point x="76" y="39" type="line"/>
      <point x="76" y="23"/>
      <point x="92" y="18"/>
      <point x="104" y="18" type="curve"/>
      <point x="129" y="18"/>
      <point x="145" y="59"/>
      <point x="152" y="76" type="curve"/>
      <point x="156" y="123"/>
      <point x="168" y="336"/>
      <point x="170" y="381" type="curve"/>
      <point x="176" y="539"/>
      <point x="154" y="821"/>
      <point x="399" y="821" type="curve"/>
      <point x="551" y="821"/>
      <point x="563" y="694"/>
      <point x="569" y="571" type="curve"/>
      <point x="571" y="571"/>
      <point x="586" y="569"/>
      <point x="590" y="569" type="curve"/>
      <point x="641" y="569"/>
      <point x="647" y="637"/>
      <point x="647" y="676" type="curve"/>
      <point x="647" y="817"/>
      <point x="569" y="877"/>
      <point x="436" y="877" type="curve"/>
      <point x="328" y="877"/>
      <point x="281" y="852"/>
      <point x="190" y="780" type="curve"/>
      <point x="172" y="809"/>
      <point x="152" y="858"/>
    </contour>
  </outline>
</glyph>
<glyph name="_103" format="1">
  <advance width="874"/>
  <outline>
    <contour>
      <point x="59" y="274" type="curve"/>
      <point x="59" y="63"/>
      <point x="244" y="-2"/>
      <point x="424" y="-2" type="curve"/>
      <point x="592" y="-2"/>
      <point x="813" y="57"/>
      <point x="813" y="266" type="curve"/>
      <point x="813" y="618"/>
      <point x="182" y="432"/>
      <point x="182" y="694" type="curve"/>
      <point x="182" y="823"/>
      <point x="324" y="840"/>
      <point x="422" y="840" type="curve"/>
      <point x="563" y="840"/>
      <point x="629" y="797"/>
      <point x="735" y="705" type="curve"/>
      <point x="772" y="702"/>
      <point x="774" y="719"/>
      <point x="774" y="741" type="curve"/>
      <point x="774" y="891"/>
      <point x="516" y="897"/>
      <point x="424" y="897" type="curve"/>
      <point x="285" y="897"/>
      <point x="106" y="852"/>
      <point x="106" y="686" type="curve"/>
      <point x="106" y="332"/>
      <point x="719" y="578"/>
      <point x="719" y="244" type="curve"/>
      <point x="719" y="80"/>
      <point x="592" y="55"/>
      <point x="451" y="55" type="curve"/>
      <point x="135" y="55"/>
      <point x="219" y="274"/>
    </contour>
  </outline>
</glyph>
<glyph name="_104" format="1">
  <advance width="545"/>
  <outline>
    <contour>
      <point x="190" y="723" type="curve"/>
      <point x="190" y="637"/>
      <point x="205" y="238"/>
      <point x="209" y="154" type="curve" smooth="yes"/>
      <point x="215" y="47"/>
      <point x="240" y="-39"/>
      <point x="360" y="-39" type="curve" smooth="yes"/>
      <point x="408" y="-39"/>
      <point x="469" y="-29"/>
      <point x="494" y="20" type="curve"/>
      <point x="475" y="39" type="line"/>
      <point x="342" y="39" type="line" smooth="yes"/>
      <point x="338" y="39"/>
      <point x="326" y="51"/>
      <point x="324" y="57" type="curve"/>
      <point x="317" y="68"/>
      <point x="305" y="121"/>
      <point x="303" y="133" type="curve"/>
      <point x="301" y="217"/>
      <point x="287" y="602"/>
      <point x="285" y="686" type="curve" smooth="yes"/>
      <point x="285" y="709" type="line" smooth="yes"/>
      <point x="285" y="776"/>
      <point x="399" y="782"/>
      <point x="436" y="780" type="curve"/>
      <point x="436" y="809" type="line"/>
      <point x="303" y="809" type="line" smooth="yes"/>
      <point x="301" y="809"/>
      <point x="287" y="856"/>
      <point x="285" y="877" type="curve"/>
      <point x="283" y="885"/>
      <point x="285" y="961"/>
      <point x="285" y="971" type="curve"/>
      <point x="281" y="1016"/>
      <point x="268" y="1122"/>
      <point x="266" y="1122" type="curve" smooth="yes"/>
      <point x="199" y="1122" type="line"/>
      <point x="199" y="838" type="line" smooth="yes"/>
      <point x="199" y="834"/>
      <point x="180" y="821"/>
      <point x="170" y="819" type="curve" smooth="yes"/>
      <point x="154" y="815"/>
      <point x="74" y="801"/>
      <point x="57" y="799" type="curve" smooth="yes"/>
      <point x="55" y="799"/>
      <point x="55" y="791"/>
      <point x="55" y="791" type="curve"/>
      <point x="55" y="735"/>
      <point x="170" y="772"/>
    </contour>
  </outline>
</glyph>
<glyph name="_105" format="1">
  <advance width="831"/>
  <outline>
    <contour>
      <point x="100" y="821" type="curve"/>
      <point x="76" y="821"/>
      <point x="55" y="821"/>
      <point x="55" y="780" type="curve"/>
      <point x="55" y="229" type="line"/>
      <point x="55" y="63"/>
      <point x="199" y="-39"/>
      <point x="350" y="-39" type="curve"/>
      <point x="473" y="-39"/>
      <point x="541" y="-4"/>
      <point x="645" y="76" type="curve"/>
      <point x="719" y="41"/>
      <point x="627" y="-20"/>
      <point x="760" y="-20" type="curve"/>
      <point x="760" y="799" type="line"/>
      <point x="760" y="823"/>
      <point x="723" y="821"/>
      <point x="713" y="821" type="curve"/>
      <point x="696" y="821"/>
      <point x="670" y="823"/>
      <point x="666" y="799" type="curve"/>
      <point x="672" y="580"/>
      <point x="756" y="18"/>
      <point x="389" y="18" type="curve"/>
      <point x="287" y="18"/>
      <point x="162" y="90"/>
      <point x="162" y="209" type="curve"/>
      <point x="162" y="799" type="line"/>
      <point x="162" y="821"/>
      <point x="111" y="821"/>
    </contour>
  </outline>
</glyph>
<glyph name="_106" format="1">
  <advance width="831"/>
  <outline>
    <contour>
      <point x="47" y="825" type="curve"/>
      <point x="47" y="797"/>
      <point x="57" y="770"/>
      <point x="70" y="743" type="curve"/>
      <point x="117" y="631"/>
      <point x="344" y="111"/>
      <point x="393" y="0" type="curve"/>
      <point x="397" y="0"/>
      <point x="418" y="-4"/>
      <point x="422" y="-4" type="curve" smooth="yes"/>
      <point x="471" y="-4"/>
      <point x="465" y="23"/>
      <point x="487" y="76" type="curve" smooth="yes"/>
      <point x="573" y="283"/>
      <point x="774" y="776"/>
      <point x="774" y="780" type="curve" smooth="yes"/>
      <point x="774" y="827" type="line"/>
      <point x="741" y="827"/>
      <point x="713" y="809"/>
      <point x="696" y="780" type="curve"/>
      <point x="451" y="154" type="line"/>
      <point x="446" y="147"/>
      <point x="434" y="121"/>
      <point x="430" y="115" type="curve"/>
      <point x="127" y="799" type="line" smooth="yes"/>
      <point x="113" y="829"/>
      <point x="72" y="825"/>
    </contour>
  </outline>
</glyph>
<glyph name="_107" format="1">
  <advance width="831"/>
  <outline>
    <contour>
      <point x="338" y="410" type="curve"/>
      <point x="338" y="281"/>
      <point x="109" y="121"/>
      <point x="51" y="-18" type="curve"/>
      <point x="55" y="-20"/>
      <point x="76" y="-23"/>
      <point x="80" y="-23" type="curve"/>
      <point x="236" y="-23"/>
      <point x="250" y="307"/>
      <point x="416" y="307" type="curve"/>
      <point x="420" y="307"/>
      <point x="432" y="305"/>
      <point x="432" y="305" type="curve"/>
      <point x="680" y="0" type="line"/>
      <point x="756" y="0" type="line"/>
      <point x="756" y="39" type="line"/>
      <point x="721" y="84"/>
      <point x="561" y="297"/>
      <point x="526" y="342" type="curve"/>
      <point x="498" y="383"/>
      <point x="487" y="383"/>
      <point x="487" y="418" type="curve"/>
      <point x="487" y="444"/>
      <point x="492" y="451"/>
      <point x="508" y="477" type="curve"/>
      <point x="539" y="522"/>
      <point x="684" y="735"/>
      <point x="717" y="780" type="curve"/>
      <point x="719" y="782"/>
      <point x="719" y="788"/>
      <point x="719" y="791" type="curve"/>
      <point x="719" y="807"/>
      <point x="705" y="819"/>
      <point x="688" y="819" type="curve"/>
      <point x="571" y="819"/>
      <point x="539" y="512"/>
      <point x="414" y="512" type="curve"/>
      <point x="410" y="512"/>
      <point x="397" y="514"/>
      <point x="393" y="514" type="curve"/>
      <point x="332" y="598"/>
      <point x="238" y="811"/>
      <point x="90" y="811" type="curve"/>
      <point x="90" y="780" type="line"/>
      <point x="125" y="733"/>
      <point x="285" y="506"/>
      <point x="317" y="457" type="curve"/>
      <point x="330" y="438"/>
      <point x="338" y="428"/>
    </contour>
  </outline>
</glyph>
<glyph name="_108" format="1">
  <advance width="856"/>
  <outline>
    <contour>
      <point x="33" y="-330" type="line"/>
      <point x="33" y="-397"/>
      <point x="106" y="-387"/>
      <point x="152" y="-387" type="curve"/>
      <point x="291" y="-387"/>
      <point x="375" y="-281"/>
      <point x="424" y="-158" type="curve"/>
      <point x="786" y="756" type="line"/>
      <point x="786" y="819" type="line"/>
      <point x="739" y="819"/>
      <point x="725" y="795"/>
      <point x="709" y="756" type="curve"/>
      <point x="670" y="655"/>
      <point x="483" y="190"/>
      <point x="442" y="90" type="curve"/>
      <point x="406" y="127" type="line"/>
      <point x="139" y="793" type="line"/>
      <point x="127" y="821"/>
      <point x="84" y="819"/>
      <point x="63" y="819" type="curve"/>
      <point x="63" y="756" type="line"/>
      <point x="367" y="-25" type="line"/>
      <point x="369" y="-27"/>
      <point x="371" y="-53"/>
      <point x="371" y="-61" type="curve"/>
      <point x="371" y="-113"/>
      <point x="293" y="-330"/>
      <point x="215" y="-330" type="curve"/>
    </contour>
  </outline>
</glyph>
<glyph name="_109" format="1">
  <advance width="862"/>
  <outline>
    <contour>
      <point x="61" y="29" type="curve" smooth="yes"/>
      <point x="61" y="2"/>
      <point x="63" y="-18"/>
      <point x="102" y="-18" type="curve" smooth="yes"/>
      <point x="786" y="-18" type="line"/>
      <point x="786" y="49" type="line"/>
      <point x="197" y="49" type="line"/>
      <point x="207" y="100"/>
      <point x="264" y="160"/>
      <point x="293" y="190" type="curve"/>
      <point x="367" y="274"/>
      <point x="713" y="659"/>
      <point x="786" y="743" type="curve"/>
      <point x="788" y="748"/>
      <point x="791" y="766"/>
      <point x="791" y="770" type="curve" smooth="yes"/>
      <point x="791" y="793"/>
      <point x="788" y="825"/>
      <point x="750" y="819" type="curve"/>
      <point x="606" y="819" type="line" smooth="yes"/>
      <point x="416" y="819"/>
      <point x="328" y="817"/>
      <point x="102" y="799" type="curve"/>
      <point x="102" y="791" type="line" smooth="yes"/>
      <point x="102" y="778"/>
      <point x="106" y="752"/>
      <point x="121" y="752" type="curve" smooth="yes"/>
      <point x="616" y="752" type="line" smooth="yes"/>
      <point x="629" y="752"/>
      <point x="637" y="725"/>
      <point x="637" y="715" type="curve" smooth="yes"/>
      <point x="637" y="688"/>
      <point x="612" y="666"/>
      <point x="596" y="647" type="curve"/>
      <point x="528" y="573"/>
      <point x="209" y="227"/>
      <point x="139" y="154" type="curve"/>
      <point x="90" y="98"/>
      <point x="61" y="86"/>
    </contour>
  </outline>
</glyph>
<glyph name="_11" format="1">
  <advance width="588"/>
  <outline>
    <contour>
      <point x="207" y="270" type="line"/>
      <point x="217" y="254"/>
      <point x="264" y="233"/>
      <point x="270" y="233" type="curve"/>
      <point x="344" y="221"/>
      <point x="336" y="311"/>
      <point x="336" y="348" type="curve"/>
      <point x="338" y="440"/>
      <point x="348" y="1188"/>
      <point x="348" y="1280" type="curve" smooth="yes"/>
      <point x="348" y="1796" type="line"/>
      <point x="336" y="1831"/>
      <point x="326" y="1837"/>
      <point x="289" y="1837" type="curve" smooth="yes"/>
      <point x="252" y="1837"/>
      <point x="229" y="1819"/>
      <point x="219" y="1784" type="curve"/>
      <point x="229" y="1335"/>
      <point x="193" y="887"/>
      <point x="193" y="438" type="curve" smooth="yes"/>
      <point x="193" y="426" type="line"/>
    </contour>
  </outline>
</glyph>
<glyph name="_110" format="1">
  <advance width="1389"/>
  <outline>
    <contour>
      <point x="336" y="20" type="curve"/>
      <point x="346" y="2"/>
      <point x="360" y="-20"/>
      <point x="383" y="-20" type="curve"/>
      <point x="406" y="-20"/>
      <point x="420" y="2"/>
      <point x="430" y="20" type="curve"/>
      <point x="524" y="205"/>
      <point x="606" y="395"/>
      <point x="678" y="590" type="curve"/>
      <point x="696" y="610" type="line"/>
      <point x="700" y="604"/>
      <point x="713" y="578"/>
      <point x="715" y="571" type="curve"/>
      <point x="748" y="489"/>
      <point x="893" y="102"/>
      <point x="926" y="20" type="curve"/>
      <point x="928" y="10"/>
      <point x="954" y="-16"/>
      <point x="963" y="-18" type="curve"/>
      <point x="971" y="-20"/>
      <point x="997" y="-6"/>
      <point x="1001" y="0" type="curve"/>
      <point x="1087" y="158"/>
      <point x="1167" y="328"/>
      <point x="1229" y="496" type="curve"/>
      <point x="1257" y="573"/>
      <point x="1325" y="772"/>
      <point x="1325" y="780" type="curve"/>
      <point x="1325" y="809" type="line"/>
      <point x="1294" y="809"/>
      <point x="1260" y="791"/>
      <point x="1247" y="762" type="curve"/>
      <point x="1001" y="154" type="line"/>
      <point x="1001" y="152"/>
      <point x="995" y="152"/>
      <point x="993" y="152" type="curve"/>
      <point x="979" y="152"/>
      <point x="971" y="158"/>
      <point x="963" y="172" type="curve"/>
      <point x="936" y="254"/>
      <point x="803" y="641"/>
      <point x="772" y="723" type="curve"/>
      <point x="764" y="750"/>
      <point x="741" y="819"/>
      <point x="696" y="819" type="curve"/>
      <point x="690" y="819"/>
      <point x="678" y="805"/>
      <point x="678" y="799" type="curve"/>
      <point x="641" y="717"/>
      <point x="481" y="332"/>
      <point x="449" y="248" type="curve"/>
      <point x="442" y="231"/>
      <point x="416" y="152"/>
      <point x="412" y="133" type="curve"/>
      <point x="393" y="133" type="line"/>
      <point x="145" y="780" type="line"/>
      <point x="137" y="801"/>
      <point x="119" y="819"/>
      <point x="98" y="819" type="curve"/>
      <point x="70" y="819"/>
      <point x="68" y="793"/>
      <point x="68" y="770" type="curve"/>
      <point x="68" y="678"/>
      <point x="125" y="551"/>
      <point x="145" y="496" type="curve"/>
      <point x="172" y="422"/>
      <point x="305" y="90"/>
    </contour>
  </outline>
</glyph>
<glyph name="_111" format="1">
  <advance width="901"/>
  <outline>
    <contour>
      <point x="432" y="-248" type="curve" smooth="yes"/>
      <point x="432" y="-279"/>
      <point x="412" y="-303"/>
      <point x="412" y="-334" type="curve"/>
      <point x="414" y="-342" type="line"/>
      <point x="514" y="-258"/>
      <point x="518" y="-211"/>
      <point x="547" y="-76" type="curve"/>
      <point x="680" y="-33"/>
      <point x="831" y="53"/>
      <point x="831" y="211" type="curve" smooth="yes"/>
      <point x="831" y="244"/>
      <point x="831" y="268"/>
      <point x="793" y="268" type="curve" smooth="yes"/>
      <point x="739" y="268"/>
      <point x="702" y="0"/>
      <point x="489" y="0" type="curve" smooth="yes"/>
      <point x="248" y="0"/>
      <point x="182" y="182"/>
      <point x="182" y="389" type="curve" smooth="yes"/>
      <point x="182" y="588"/>
      <point x="207" y="801"/>
      <point x="455" y="801" type="curve" smooth="yes"/>
      <point x="612" y="801"/>
      <point x="696" y="739"/>
      <point x="756" y="590" type="curve"/>
      <point x="760" y="590"/>
      <point x="778" y="588"/>
      <point x="784" y="588" type="curve" smooth="yes"/>
      <point x="813" y="588"/>
      <point x="831" y="594"/>
      <point x="831" y="627" type="curve" smooth="yes"/>
      <point x="831" y="805"/>
      <point x="625" y="877"/>
      <point x="479" y="877" type="curve" smooth="yes"/>
      <point x="172" y="877"/>
      <point x="68" y="668"/>
      <point x="68" y="389" type="curve" smooth="yes"/>
      <point x="68" y="-123"/>
      <point x="432" y="66"/>
    </contour>
  </outline>
</glyph>
<glyph name="_112" format="1">
  <advance width="1610"/>
  <outline>
    <contour>
      <point x="705" y="610" type="curve"/>
      <point x="596" y="602"/>
      <point x="78" y="549"/>
      <point x="78" y="342" type="curve"/>
      <point x="78" y="133" type="line"/>
      <point x="78" y="10"/>
      <point x="276" y="-39"/>
      <point x="369" y="-39" type="curve"/>
      <point x="516" y="-39"/>
      <point x="606" y="18"/>
      <point x="743" y="96" type="curve"/>
      <point x="745" y="96"/>
      <point x="758" y="98"/>
      <point x="762" y="98" type="curve"/>
      <point x="831" y="98"/>
      <point x="950" y="-37"/>
      <point x="1153" y="-37" type="curve"/>
      <point x="1268" y="-37"/>
      <point x="1505" y="43"/>
      <point x="1505" y="190" type="curve"/>
      <point x="1505" y="217"/>
      <point x="1491" y="229"/>
      <point x="1466" y="229" type="curve"/>
      <point x="1413" y="229"/>
      <point x="1348" y="18"/>
      <point x="1133" y="18" type="curve"/>
      <point x="956" y="18"/>
      <point x="831" y="133"/>
      <point x="831" y="315" type="curve"/>
      <point x="831" y="330"/>
      <point x="836" y="375"/>
      <point x="838" y="381" type="curve"/>
      <point x="856" y="399" type="line"/>
      <point x="1503" y="438" type="line"/>
      <point x="1507" y="438"/>
      <point x="1520" y="451"/>
      <point x="1522" y="457" type="curve"/>
      <point x="1528" y="469"/>
      <point x="1542" y="508"/>
      <point x="1542" y="514" type="curve"/>
      <point x="1542" y="735"/>
      <point x="1352" y="858"/>
      <point x="1153" y="858" type="curve"/>
      <point x="1014" y="858"/>
      <point x="944" y="836"/>
      <point x="819" y="762" type="curve"/>
      <point x="715" y="817"/>
      <point x="608" y="877"/>
      <point x="485" y="877" type="curve"/>
      <point x="379" y="877"/>
      <point x="188" y="840"/>
      <point x="115" y="743" type="curve"/>
      <point x="121" y="717"/>
      <point x="156" y="723"/>
      <point x="172" y="723" type="curve"/>
      <point x="270" y="723"/>
      <point x="352" y="801"/>
      <point x="457" y="801" type="curve"/>
      <point x="539" y="801"/>
      <point x="727" y="774"/>
      <point x="727" y="659" type="curve"/>
      <point x="727" y="643"/>
      <point x="729" y="614"/>
    </contour>
    <contour>
      <point x="170" y="236" type="curve"/>
      <point x="170" y="471"/>
      <point x="485" y="535"/>
      <point x="670" y="535" type="curve"/>
      <point x="678" y="535"/>
      <point x="723" y="541"/>
      <point x="723" y="514" type="curve"/>
      <point x="723" y="229" type="line"/>
      <point x="723" y="88"/>
      <point x="498" y="37"/>
      <point x="399" y="37" type="curve"/>
      <point x="279" y="37"/>
      <point x="170" y="102"/>
    </contour>
    <contour>
      <point x="854" y="553" type="curve"/>
      <point x="854" y="713"/>
      <point x="1010" y="801"/>
      <point x="1151" y="801" type="curve"/>
      <point x="1292" y="801"/>
      <point x="1430" y="715"/>
      <point x="1430" y="561" type="curve"/>
      <point x="1430" y="557"/>
      <point x="1438" y="496"/>
      <point x="1409" y="496" type="curve"/>
      <point x="877" y="496" type="line"/>
      <point x="850" y="496"/>
      <point x="854" y="545"/>
    </contour>
  </outline>
</glyph>
<glyph name="_113" format="1">
  <advance width="1655"/>
  <outline>
    <contour>
      <point x="63" y="399" type="curve"/>
      <point x="63" y="133"/>
      <point x="201" y="-41"/>
      <point x="469" y="-41" type="curve"/>
      <point x="616" y="-41"/>
      <point x="731" y="78"/>
      <point x="834" y="78" type="curve"/>
      <point x="944" y="78"/>
      <point x="1036" y="-39"/>
      <point x="1167" y="-39" type="curve"/>
      <point x="1249" y="-39"/>
      <point x="1577" y="47"/>
      <point x="1548" y="190" type="curve"/>
      <point x="1544" y="209"/>
      <point x="1522" y="229"/>
      <point x="1499" y="229" type="curve"/>
      <point x="1460" y="229"/>
      <point x="1407" y="18"/>
      <point x="1204" y="18" type="curve"/>
      <point x="997" y="18"/>
      <point x="881" y="154"/>
      <point x="881" y="354" type="curve"/>
      <point x="881" y="371"/>
      <point x="877" y="393"/>
      <point x="901" y="399" type="curve"/>
      <point x="1120" y="446"/>
      <point x="1346" y="389"/>
      <point x="1567" y="438" type="curve"/>
      <point x="1593" y="442"/>
      <point x="1587" y="477"/>
      <point x="1587" y="492" type="curve"/>
      <point x="1587" y="723"/>
      <point x="1409" y="858"/>
      <point x="1196" y="858" type="curve"/>
      <point x="1028" y="858"/>
      <point x="897" y="739"/>
      <point x="844" y="739" type="curve"/>
      <point x="754" y="739"/>
      <point x="641" y="858"/>
      <point x="506" y="858" type="curve"/>
      <point x="223" y="858"/>
      <point x="63" y="684"/>
    </contour>
    <contour>
      <point x="176" y="410" type="curve"/>
      <point x="176" y="627"/>
      <point x="231" y="801"/>
      <point x="483" y="801" type="curve"/>
      <point x="727" y="801"/>
      <point x="770" y="625"/>
      <point x="770" y="418" type="curve"/>
      <point x="770" y="205"/>
      <point x="723" y="18"/>
      <point x="473" y="18" type="curve"/>
      <point x="233" y="18"/>
      <point x="176" y="199"/>
    </contour>
    <contour>
      <point x="881" y="530" type="curve"/>
      <point x="881" y="705"/>
      <point x="1022" y="801"/>
      <point x="1182" y="801" type="curve"/>
      <point x="1386" y="801"/>
      <point x="1479" y="696"/>
      <point x="1479" y="494" type="curve"/>
      <point x="901" y="494" type="line"/>
      <point x="881" y="494"/>
      <point x="881" y="520"/>
    </contour>
  </outline>
</glyph>
<glyph name="_114" format="1">
  <advance width="242"/>
  <outline>
    <contour>
      <point x="63" y="106" type="curve"/>
      <point x="63" y="78"/>
      <point x="61" y="-33"/>
      <point x="121" y="-18" type="curve"/>
      <point x="133" y="-16"/>
      <point x="160" y="10"/>
      <point x="160" y="18" type="curve"/>
      <point x="160" y="152" type="line"/>
      <point x="160" y="176"/>
      <point x="121" y="172"/>
      <point x="113" y="172" type="curve"/>
      <point x="63" y="172"/>
      <point x="63" y="152"/>
    </contour>
  </outline>
</glyph>
<glyph name="_115" format="1">
  <advance width="221"/>
  <outline>
    <contour>
      <point x="78" y="-57" type="curve"/>
      <point x="78" y="-111"/>
      <point x="37" y="-156"/>
      <point x="37" y="-209" type="curve"/>
      <point x="37" y="-213"/>
      <point x="39" y="-225"/>
      <point x="39" y="-229" type="curve"/>
      <point x="141" y="-147"/>
      <point x="154" y="-12"/>
      <point x="154" y="111" type="curve"/>
      <point x="154" y="141"/>
      <point x="154" y="190"/>
      <point x="106" y="190" type="curve"/>
      <point x="88" y="190"/>
      <point x="74" y="182"/>
      <point x="57" y="172" type="curve"/>
      <point x="57" y="158"/>
      <point x="55" y="98"/>
      <point x="55" y="86" type="curve"/>
      <point x="55" y="25"/>
      <point x="78" y="-6"/>
    </contour>
  </outline>
</glyph>
<glyph name="_116" format="1">
  <advance width="227"/>
  <outline>
    <contour>
      <point x="76" y="184" type="curve"/>
      <point x="76" y="0" type="line"/>
      <point x="76" y="-20"/>
      <point x="104" y="-20"/>
      <point x="115" y="-20" type="curve"/>
      <point x="162" y="-20"/>
      <point x="154" y="55"/>
      <point x="154" y="86" type="curve"/>
      <point x="154" y="145"/>
      <point x="147" y="184"/>
    </contour>
    <contour>
      <point x="113" y="801" type="curve"/>
      <point x="102" y="801"/>
      <point x="76" y="801"/>
      <point x="76" y="780" type="curve"/>
      <point x="76" y="627" type="line"/>
      <point x="76" y="623"/>
      <point x="88" y="608"/>
      <point x="94" y="608" type="curve"/>
      <point x="156" y="608"/>
      <point x="154" y="694"/>
      <point x="154" y="733" type="curve"/>
      <point x="154" y="770"/>
      <point x="156" y="801"/>
    </contour>
  </outline>
</glyph>
<glyph name="_117" format="1">
  <advance width="221"/>
  <outline>
    <contour>
      <point x="102" y="-66" type="curve" smooth="yes"/>
      <point x="102" y="-104"/>
      <point x="82" y="-141"/>
      <point x="82" y="-180" type="curve" smooth="yes"/>
      <point x="82" y="-190" type="line"/>
      <point x="158" y="-145"/>
      <point x="160" y="-6"/>
      <point x="160" y="70" type="curve" smooth="yes"/>
      <point x="160" y="98"/>
      <point x="154" y="172"/>
      <point x="111" y="172" type="curve" smooth="yes"/>
      <point x="100" y="172" type="line"/>
      <point x="59" y="150"/>
      <point x="61" y="51"/>
      <point x="63" y="37" type="curve"/>
      <point x="63" y="29"/>
      <point x="98" y="-31"/>
      <point x="100" y="-39" type="curve"/>
      <point x="100" y="-39"/>
      <point x="102" y="-57"/>
    </contour>
    <contour>
      <point x="82" y="799" type="curve"/>
      <point x="82" y="608" type="line"/>
      <point x="139" y="608" type="line"/>
      <point x="139" y="780" type="line" smooth="yes"/>
      <point x="139" y="801"/>
      <point x="113" y="801"/>
      <point x="100" y="801" type="curve" smooth="yes"/>
      <point x="98" y="801"/>
      <point x="84" y="799"/>
    </contour>
  </outline>
</glyph>
<glyph name="_118" format="1">
  <advance width="227"/>
  <outline>
    <contour>
      <point x="96" y="1092" type="curve" smooth="yes"/>
      <point x="96" y="1049"/>
      <point x="57" y="1020"/>
      <point x="57" y="979" type="curve" smooth="yes"/>
      <point x="57" y="971" type="line"/>
      <point x="170" y="1051"/>
      <point x="166" y="1174"/>
      <point x="166" y="1300" type="curve"/>
      <point x="92" y="1300"/>
      <point x="76" y="1298"/>
      <point x="76" y="1229" type="curve" smooth="yes"/>
      <point x="76" y="1180"/>
      <point x="96" y="1141"/>
    </contour>
  </outline>
</glyph>
<glyph name="_119" format="1">
  <advance width="584"/>
  <outline>
    <contour>
      <point x="68" y="389" type="curve"/>
      <point x="68" y="371"/>
      <point x="84" y="360"/>
      <point x="106" y="360" type="curve"/>
      <point x="487" y="360" type="line"/>
      <point x="504" y="360"/>
      <point x="508" y="379"/>
      <point x="508" y="389" type="curve"/>
      <point x="508" y="401"/>
      <point x="504" y="418"/>
      <point x="487" y="418" type="curve"/>
      <point x="88" y="418" type="line"/>
      <point x="74" y="418"/>
      <point x="68" y="399"/>
    </contour>
  </outline>
</glyph>
<glyph name="_12" format="1">
  <advance width="578"/>
  <outline>
    <contour>
      <point x="324" y="55" type="curve"/>
      <point x="319" y="55"/>
      <point x="319" y="49"/>
      <point x="324" y="49" type="curve"/>
      <point x="326" y="49"/>
      <point x="326" y="55"/>
    </contour>
    <contour>
      <point x="180" y="399" type="curve"/>
      <point x="180" y="301"/>
      <point x="166" y="231"/>
      <point x="266" y="231" type="curve"/>
      <point x="301" y="231"/>
      <point x="311" y="236"/>
      <point x="324" y="270" type="curve"/>
      <point x="356" y="629"/>
      <point x="348" y="997"/>
      <point x="348" y="1356" type="curve"/>
      <point x="348" y="1427"/>
      <point x="340" y="1753"/>
      <point x="336" y="1823" type="curve"/>
      <point x="332" y="1843"/>
      <point x="285" y="1837"/>
      <point x="283" y="1837" type="curve"/>
      <point x="242" y="1837"/>
      <point x="217" y="1823"/>
      <point x="207" y="1784" type="curve"/>
      <point x="219" y="1323"/>
      <point x="180" y="860"/>
    </contour>
    <contour>
      <point x="348" y="637" type="curve"/>
      <point x="346" y="637"/>
      <point x="346" y="631"/>
      <point x="348" y="631" type="curve"/>
      <point x="352" y="631"/>
      <point x="352" y="637"/>
    </contour>
  </outline>
</glyph>
<glyph name="_120" format="1">
  <advance width="236"/>
  <outline>
    <contour>
      <point x="106" y="193" type="curve"/>
      <point x="96" y="193"/>
      <point x="57" y="195"/>
      <point x="57" y="172" type="curve"/>
      <point x="57" y="18" type="line"/>
      <point x="57" y="-6"/>
      <point x="96" y="-2"/>
      <point x="106" y="-2" type="curve"/>
      <point x="162" y="-2"/>
      <point x="154" y="55"/>
      <point x="154" y="94" type="curve"/>
      <point x="154" y="135"/>
      <point x="162" y="193"/>
    </contour>
    <contour>
      <point x="115" y="1333" type="curve"/>
      <point x="92" y="1333"/>
      <point x="57" y="1325"/>
      <point x="57" y="1292" type="curve"/>
      <point x="57" y="342" type="line"/>
      <point x="57" y="326"/>
      <point x="82" y="285"/>
      <point x="104" y="285" type="curve"/>
      <point x="117" y="285"/>
      <point x="125" y="289"/>
      <point x="133" y="305" type="curve"/>
      <point x="145" y="645"/>
      <point x="152" y="956"/>
      <point x="170" y="1292" type="curve"/>
      <point x="156" y="1325"/>
      <point x="141" y="1333"/>
    </contour>
  </outline>
</glyph>
<glyph name="_121" format="1">
  <advance width="938"/>
  <outline>
    <contour>
      <point x="399" y="152" type="line"/>
      <point x="399" y="0" type="line"/>
      <point x="399" y="-8"/>
      <point x="426" y="-23"/>
      <point x="438" y="-18" type="curve"/>
      <point x="449" y="-16"/>
      <point x="475" y="10"/>
      <point x="475" y="18" type="curve"/>
      <point x="475" y="152" type="line"/>
    </contour>
    <contour>
      <point x="784" y="989" type="curve"/>
      <point x="784" y="670"/>
      <point x="401" y="690"/>
      <point x="401" y="236" type="curve"/>
      <point x="532" y="236"/>
      <point x="467" y="418"/>
      <point x="532" y="494" type="curve"/>
      <point x="676" y="657"/>
      <point x="897" y="752"/>
      <point x="897" y="995" type="curve"/>
      <point x="897" y="1231"/>
      <point x="688" y="1315"/>
      <point x="485" y="1315" type="curve"/>
      <point x="330" y="1315"/>
      <point x="37" y="1249"/>
      <point x="37" y="1036" type="curve"/>
      <point x="37" y="999"/>
      <point x="53" y="985"/>
      <point x="88" y="985" type="curve"/>
      <point x="109" y="985"/>
      <point x="233" y="1257"/>
      <point x="469" y="1257" type="curve"/>
      <point x="639" y="1257"/>
      <point x="784" y="1165"/>
    </contour>
  </outline>
</glyph>
<glyph name="_122" format="1">
  <advance width="557"/>
  <outline>
    <contour>
      <point x="49" y="340" type="curve"/>
      <point x="49" y="113"/>
      <point x="129" y="-326"/>
      <point x="451" y="-326" type="curve"/>
      <point x="457" y="-326"/>
      <point x="483" y="-324"/>
      <point x="487" y="-324" type="curve"/>
      <point x="444" y="-197"/>
      <point x="184" y="-152"/>
      <point x="184" y="115" type="curve"/>
      <point x="184" y="780" type="line"/>
      <point x="184" y="1100"/>
      <point x="494" y="1190"/>
      <point x="494" y="1298" type="curve"/>
      <point x="37" y="1298"/>
      <point x="49" y="621"/>
    </contour>
  </outline>
</glyph>
<glyph name="_123" format="1">
  <advance width="557"/>
  <outline>
    <contour>
      <point x="-6" y="-305" type="curve"/>
      <point x="-6" y="-348" type="line"/>
      <point x="442" y="-348"/>
      <point x="489" y="139"/>
      <point x="489" y="473" type="curve"/>
      <point x="489" y="774"/>
      <point x="514" y="1081"/>
      <point x="223" y="1255" type="curve"/>
      <point x="178" y="1282"/>
      <point x="123" y="1313"/>
      <point x="70" y="1313" type="curve"/>
      <point x="51" y="1313"/>
      <point x="31" y="1307"/>
      <point x="31" y="1284" type="curve"/>
      <point x="31" y="1255"/>
      <point x="74" y="1247"/>
      <point x="90" y="1237" type="curve"/>
      <point x="115" y="1221"/>
      <point x="195" y="1167"/>
      <point x="203" y="1159" type="curve"/>
      <point x="315" y="1071"/>
      <point x="358" y="936"/>
      <point x="375" y="799" type="curve"/>
      <point x="375" y="756"/>
      <point x="377" y="557"/>
      <point x="377" y="514" type="curve"/>
      <point x="377" y="90"/>
      <point x="397" y="-121"/>
    </contour>
  </outline>
</glyph>
<glyph name="_124" format="1">
  <advance width="469"/>
  <outline>
    <contour>
      <point x="330" y="-18" type="curve"/>
      <point x="326" y="-39"/>
      <point x="285" y="-119"/>
      <point x="272" y="-133" type="curve"/>
      <point x="281" y="-135" type="line"/>
      <point x="377" y="-135"/>
      <point x="406" y="109"/>
      <point x="406" y="152" type="curve" smooth="yes"/>
      <point x="406" y="207"/>
      <point x="338" y="205"/>
      <point x="303" y="205" type="curve"/>
      <point x="303" y="184"/>
      <point x="307" y="78"/>
      <point x="309" y="57" type="curve"/>
      <point x="311" y="49"/>
      <point x="330" y="-12"/>
    </contour>
    <contour>
      <point x="84" y="-29" type="curve" smooth="yes"/>
      <point x="84" y="-61"/>
      <point x="82" y="-80"/>
      <point x="63" y="-115" type="curve"/>
      <point x="72" y="-115" type="line" smooth="yes"/>
      <point x="154" y="-115"/>
      <point x="160" y="66"/>
      <point x="160" y="117" type="curve" smooth="yes"/>
      <point x="160" y="166"/>
      <point x="164" y="193"/>
      <point x="111" y="193" type="curve" smooth="yes"/>
      <point x="57" y="193"/>
      <point x="61" y="166"/>
      <point x="61" y="117" type="curve" smooth="yes"/>
      <point x="61" y="63"/>
      <point x="84" y="23"/>
    </contour>
  </outline>
</glyph>
<glyph name="_125" format="1">
  <advance width="457"/>
  <outline>
    <contour>
      <point x="262" y="963" type="line"/>
      <point x="262" y="12" type="line"/>
      <point x="262" y="0"/>
      <point x="330" y="-27"/>
      <point x="340" y="-27" type="curve"/>
      <point x="369" y="-27"/>
      <point x="385" y="33"/>
      <point x="385" y="51" type="curve"/>
      <point x="367" y="1153" type="line"/>
      <point x="367" y="1180"/>
      <point x="358" y="1194"/>
      <point x="340" y="1194" type="curve"/>
      <point x="297" y="1194"/>
      <point x="18" y="969"/>
      <point x="18" y="915" type="curve"/>
      <point x="96" y="915"/>
      <point x="168" y="942"/>
      <point x="233" y="983" type="curve"/>
    </contour>
  </outline>
</glyph>
<glyph name="_126" format="1">
  <advance width="1040"/>
  <outline>
    <contour>
      <point x="831" y="887" type="curve"/>
      <point x="831" y="504"/>
      <point x="84" y="463"/>
      <point x="84" y="-6" type="curve"/>
      <point x="971" y="-6" type="line"/>
      <point x="971" y="2"/>
      <point x="967" y="43"/>
      <point x="965" y="51" type="curve"/>
      <point x="963" y="59"/>
      <point x="948" y="80"/>
      <point x="944" y="80" type="curve"/>
      <point x="242" y="80" type="line"/>
      <point x="227" y="80"/>
      <point x="221" y="104"/>
      <point x="221" y="117" type="curve"/>
      <point x="221" y="143"/>
      <point x="244" y="162"/>
      <point x="260" y="184" type="curve"/>
      <point x="444" y="428"/>
      <point x="948" y="530"/>
      <point x="948" y="891" type="curve"/>
      <point x="948" y="1151"/>
      <point x="694" y="1212"/>
      <point x="483" y="1212" type="curve"/>
      <point x="309" y="1212"/>
      <point x="59" y="1094"/>
      <point x="51" y="887" type="curve"/>
      <point x="61" y="872"/>
      <point x="88" y="829"/>
      <point x="117" y="829" type="curve"/>
      <point x="172" y="829"/>
      <point x="229" y="1135"/>
      <point x="393" y="1135" type="curve"/>
      <point x="641" y="1135" type="line"/>
      <point x="745" y="1135"/>
      <point x="831" y="973"/>
    </contour>
  </outline>
</glyph>
<glyph name="_127" format="1">
  <advance width="1065"/>
  <outline>
    <contour>
      <point x="74" y="250" type="curve" smooth="yes"/>
      <point x="74" y="102"/>
      <point x="236" y="6"/>
      <point x="360" y="-27" type="curve"/>
      <point x="514" y="-27" type="line" smooth="yes"/>
      <point x="743" y="-27"/>
      <point x="991" y="53"/>
      <point x="991" y="324" type="curve" smooth="yes"/>
      <point x="991" y="512"/>
      <point x="797" y="588"/>
      <point x="797" y="631" type="curve" smooth="yes"/>
      <point x="797" y="633"/>
      <point x="799" y="639"/>
      <point x="799" y="641" type="curve"/>
      <point x="887" y="719"/>
      <point x="971" y="784"/>
      <point x="971" y="907" type="curve" smooth="yes"/>
      <point x="971" y="1122"/>
      <point x="739" y="1212"/>
      <point x="559" y="1212" type="curve" smooth="yes"/>
      <point x="410" y="1212"/>
      <point x="113" y="1161"/>
      <point x="113" y="952" type="curve" smooth="yes"/>
      <point x="113" y="913"/>
      <point x="137" y="905"/>
      <point x="172" y="905" type="curve" smooth="yes"/>
      <point x="174" y="905"/>
      <point x="188" y="905"/>
      <point x="190" y="907" type="curve"/>
      <point x="266" y="1059" type="line" smooth="yes"/>
      <point x="268" y="1063"/>
      <point x="281" y="1075"/>
      <point x="285" y="1077" type="curve" smooth="yes"/>
      <point x="301" y="1087"/>
      <point x="381" y="1126"/>
      <point x="399" y="1135" type="curve"/>
      <point x="418" y="1135"/>
      <point x="504" y="1137"/>
      <point x="522" y="1137" type="curve" smooth="yes"/>
      <point x="686" y="1137"/>
      <point x="840" y="1085"/>
      <point x="840" y="897" type="curve" smooth="yes"/>
      <point x="840" y="612"/>
      <point x="504" y="745"/>
      <point x="457" y="621" type="curve"/>
      <point x="475" y="602" type="line"/>
      <point x="659" y="571"/>
      <point x="858" y="543"/>
      <point x="858" y="317" type="curve" smooth="yes"/>
      <point x="858" y="123"/>
      <point x="688" y="29"/>
      <point x="510" y="29" type="curve" smooth="yes"/>
      <point x="217" y="29"/>
      <point x="221" y="319"/>
      <point x="123" y="319" type="curve" smooth="yes"/>
      <point x="74" y="319"/>
      <point x="74" y="295"/>
    </contour>
  </outline>
</glyph>
<glyph name="_128" format="1">
  <advance width="1047"/>
  <outline>
    <contour>
      <point x="635" y="260" type="curve"/>
      <point x="766" y="260"/>
      <point x="614" y="-8"/>
      <point x="737" y="-8" type="curve"/>
      <point x="745" y="-8"/>
      <point x="797" y="-8"/>
      <point x="797" y="12" type="curve"/>
      <point x="797" y="240" type="line"/>
      <point x="797" y="295"/>
      <point x="971" y="240"/>
      <point x="997" y="317" type="curve"/>
      <point x="977" y="377"/>
      <point x="852" y="375"/>
      <point x="825" y="375" type="curve"/>
      <point x="807" y="430" type="line"/>
      <point x="752" y="594"/>
      <point x="795" y="748"/>
      <point x="786" y="907" type="curve"/>
      <point x="784" y="946"/>
      <point x="772" y="1133"/>
      <point x="768" y="1174" type="curve"/>
      <point x="762" y="1196"/>
      <point x="735" y="1194"/>
      <point x="719" y="1194" type="curve"/>
      <point x="674" y="1194"/>
      <point x="674" y="1184"/>
      <point x="635" y="1135" type="curve"/>
      <point x="45" y="354" type="line"/>
      <point x="39" y="346"/>
      <point x="27" y="307"/>
      <point x="27" y="297" type="curve"/>
      <point x="27" y="293"/>
      <point x="39" y="279"/>
      <point x="45" y="279" type="curve"/>
      <point x="223" y="250"/>
      <point x="477" y="254"/>
    </contour>
    <contour>
      <point x="178" y="393" type="line"/>
      <point x="674" y="1038" type="line"/>
      <point x="674" y="393" type="line"/>
      <point x="674" y="379"/>
      <point x="616" y="354"/>
      <point x="616" y="354" type="curve"/>
      <point x="178" y="354" type="line"/>
    </contour>
  </outline>
</glyph>
<glyph name="_129" format="1">
  <advance width="1014"/>
  <outline>
    <contour>
      <point x="63" y="252" type="curve" smooth="yes"/>
      <point x="63" y="43"/>
      <point x="334" y="-45"/>
      <point x="504" y="-45" type="curve" smooth="yes"/>
      <point x="745" y="-45"/>
      <point x="958" y="160"/>
      <point x="958" y="401" type="curve" smooth="yes"/>
      <point x="958" y="659"/>
      <point x="776" y="813"/>
      <point x="532" y="813" type="curve" smooth="yes"/>
      <point x="442" y="813"/>
      <point x="352" y="754"/>
      <point x="272" y="754" type="curve" smooth="yes"/>
      <point x="252" y="754"/>
      <point x="254" y="778"/>
      <point x="254" y="791" type="curve" smooth="yes"/>
      <point x="254" y="868"/>
      <point x="246" y="1040"/>
      <point x="330" y="1096" type="curve"/>
      <point x="399" y="1100"/>
      <point x="719" y="1112"/>
      <point x="786" y="1116" type="curve" smooth="yes"/>
      <point x="788" y="1116"/>
      <point x="805" y="1114"/>
      <point x="807" y="1116" type="curve"/>
      <point x="817" y="1118"/>
      <point x="870" y="1130"/>
      <point x="883" y="1135" type="curve"/>
      <point x="883" y="1153" type="line" smooth="yes"/>
      <point x="883" y="1165"/>
      <point x="883" y="1192"/>
      <point x="862" y="1192" type="curve" smooth="yes"/>
      <point x="254" y="1192" type="line"/>
      <point x="236" y="1174" type="line" smooth="yes"/>
      <point x="231" y="1169"/>
      <point x="205" y="1051"/>
      <point x="197" y="1001" type="curve"/>
      <point x="186" y="942"/>
      <point x="147" y="662"/>
      <point x="139" y="602" type="curve"/>
      <point x="139" y="602"/>
      <point x="164" y="545"/>
      <point x="178" y="545" type="curve" smooth="yes"/>
      <point x="221" y="545"/>
      <point x="348" y="737"/>
      <point x="510" y="737" type="curve" smooth="yes"/>
      <point x="717" y="737"/>
      <point x="827" y="596"/>
      <point x="827" y="397" type="curve" smooth="yes"/>
      <point x="827" y="193"/>
      <point x="692" y="31"/>
      <point x="483" y="31" type="curve" smooth="yes"/>
      <point x="231" y="31"/>
      <point x="164" y="317"/>
      <point x="131" y="317" type="curve" smooth="yes"/>
      <point x="90" y="317"/>
      <point x="63" y="289"/>
    </contour>
  </outline>
</glyph>
